<svg xmlns="http://www.w3.org/2000/svg" width="140" height="41" viewBox="0 0 140 41">
    <path fill="#0084FF" fill-rule="evenodd" d="M26.794 39.541l-1.689.329-5.777.13s-8.55-.476-.925-.952h4.663c-.442 0-.299-.077 1.581-.347l2.911-.324 2.918-.282-1.95.416-3.3.405s-1.582.132-2.16.132h.421l3.383.098c.065-.033.147-.066.249-.098h.726l.726.108-.038.038.038.001-.048.01-.447.446-.825.096s-.286-.082-.457-.206zm8.94-1.294c-.166-.018-.33-.039-.495-.06-.195-.026-.4-.065-.59-.045-1.141.12-2.258-.058-3.385-.156-2.867-.248-5.721-.046-8.58.03-.785.022-1.574-.024-2.362-.039-.295-.005-.594-.03-.886-.01-2.548.177-5.132.11-7.647.515-.33.053-.692.002-1.033.033-.975.089-1.945.203-2.92.291-1.073.098-2.147.236-3.225.242-.666.003-1.34-.208-1.908-.305-.485-.383-.577-.776-.645-1.17-.067-.385-.102-.774-.153-1.18 2.11.013 4.163-.1 6.207-.302.39-.038.788-.041 1.182-.046.887-.011 1.775-.008 2.662-.02 2.418-.034 4.836-.079 7.254-.105.59-.007 1.185.058 1.776.054 2.27-.02 4.54-.054 6.812-.082.444-.006.892-.036 1.334-.01 1.981.119 3.946-.073 5.92-.074.889 0 1.78.07 2.668.073 3.903.013 7.806.02 11.709.015 3.705-.005 7.409-.039 11.114-.04 3.355 0 6.711.054 10.065.033 2.123-.013 4.243-.118 6.364-.183 2.417-.074 4.833-.15 7.249-.226 2.267-.07 4.534-.159 6.802-.21 1.629-.035 3.26-.035 4.89-.029 3.805.014 7.613.111 11.411.037 2.477-.048 4.941.089 7.41.111 3.26.028 6.521.047 9.781.057 1.233.003 2.469.007 3.695-.054 2.87-.145 5.727-.009 8.933.264-.418.182-.858.204-1.021.227-.885.126-1.53.09-2.384.159-1.419.115-2.627.426-4.05.509-.492.028-.986.028-1.48.032-1.58.013-3.15.058-4.72.213-.868.086-1.774.036-2.66-.005-.942-.044-1.865-.004-2.803.06-1.664.113-3.343.132-5.015.198-.835.033-1.67.076-2.504.124-1.324.077-2.649.163-3.973.241-.884.051-1.768.102-2.654.14-1.674.07-3.35.124-5.025.2-1.77.079-3.536.2-5.308.257-2.707.088-5.392.372-8.126.265-1.52-.06-3.05.101-4.575.176-1.23.06-2.455.154-3.684.207-3.756.163-7.508-.015-11.257-.256-1.18-.076-2.348-.256-3.527-.338a54.786 54.786 0 0 0-3.253-.114c-.887-.008-1.767.042-2.648-.14-.367-.075-.786-.043-1.175-.015-2.684.205-5.302.431-7.355.544-1.419.094-2.836.225-4.279.1-.732-.064-1.483-.039-2.221-.012-.483.017-.965.028-1.446.03-.005.118-.468.267-1.79.456l-2.91.132-2.919.002 1.948-.688 1.404-.113zM15.481 23.852c.024-.104.053-.21.105-.319-.64.97-1.75 2.198-2.103 3.185-.821.425-1.503 1.73-2.345 2.04-1.344 1.759-2.866 2.42-4.362 3.215-1.206-.21-2.242.624-3.455.353-.35-.158-.11-.407-.04-.63-.881-.212-1.591-.583-2.087-1.476-.353-.64-.443-1.975-.755-2.838a5.83 5.83 0 0 1-.353-1.45C0 25.03.169 24.4 0 23.57c1.046-4.651 3.357-10.735 7.993-15.353 1.936-1.925 4.126-4.21 6.41-5.265.602-.024 1.357-.266 2.165.131.88.435 1.653 1.194 2.089 1.881-.533.381-1.137.32-1.722.381-.544.317-1.074.725-1.653.833-3.239 2.41-6.444 5.046-9.396 9.252.042.98-.582 1.577-1.077 2.541-.374.725-.534 1.656-.846 2.501-.585 1.608-1.084 3.2-1.212 4.645.173.091.274-.28.464-.07-.61.518 0 .849-.61 1.368.194.933.35 1.877.34 2.844 1.472.32 2.737-1.364 4.452-2.652.329-.246.8-.526 1.382-1.021 2.245-1.901 5.384-5.478 6.566-8.36-1.871.082-3.493 1.73-5.29 2.259-.375-.358-.694-.368-1.002-.31-.963-.627-.353-1.49-1.064-2.154 3.766-3.222 7.83-4.584 11.815-6.441 1.808-.22 3.6-.56 5.519-.091a2.1 2.1 0 0 0 .974.485c.453.59 1.07 1.15.658 1.871 1.978-1.028 3.814-2.926 5.945-2.997.963.644 1.916 1.291 2.058 2.06-.537 1.055-.89 1.914-1.815 3.114.03.152-.257.35.072.455-.367.725-1 1.834-1.811 2.417-.046.276.27-.25.415-.004-.37.409-.682 1.177-1.133 1.1-.045-.206.11-.442.309-.685-.777.988-1.916 1.497-2.363 2.33-.06-.105-.021-.226.062-.354-2.079 1.988-4.272 3.266-6.528 4.183.029.92-.044 1.86-.024 2.784 2.343-.233 4.473-1.794 6.677-2.876.818-.802 1.798-1.156 2.62-1.85 1.06-.897 1.787-1.695 2.934-2.821.516-.51 1.07-.826 1.348-1.25.644-.995.779-2.178 1.517-3.129.475-1.635 1.947-3.424 1.757-4.958.658-.226 1.451.38 2.241.988-.111.229.055.417.045.63.534-.246 1.057-.567 1.584-.88.055.108.02.23-.063.357 1.9-.964 4.304-2.08 6.358.3-.152.2.125.33-.09.536 2.127 1.113 1.6 3.216.014 4.514-.448 1.105-1.611 2.427-2.142 3.687-.869 1.554-2.587 2.535-2.754 3.954 1.473-1.102 2.12-2.95 3.33-4.446-.25 1.234-1.345 2.599-2.107 3.914-.211.04-.384.31-.61.265-.048.773-.63.914-.627 1.659.153.08.246-.199.398-.118.13-.66.804-1.332.974-1.713.357.429-.02.685-.329 1.268.461.027.794-.725 1.233-.83-.678 1.51-1.4 3.129-2.802 4.022-.527-.324-.974-.149-1.431-.014-1.303-.765-.87-1.796-1.154-2.716.392-1.257 1.306-2.245 1.746-3.57.381-1.159.63-2.336 1.164-3.478.18-.394.336-.782.28-1.2.663-1.052 1.161-2.518 1.66-3.728-1.271-.38-2.179 1.497-3.298 2.066-.7 1.176-2.062 1.85-2.848 2.983-.786 1.132-1.018 2.467-1.86 3.586-.187.243.076.415.041.63-.662.277-.855.864-1.244 1.524.212.003.353-.424.548-.512.084-.156.213-.266.377-.223.554.223-.263.837-.435.857a.148.148 0 0 1-.017-.025c-.59 1.12-1.375 2.456-1.744 3.803-.582.57-1.354-.034-2.069-.263-.786-.516-.765-1.156-1.52-1.679.131-.637.17-1.26.058-1.86.94-1.301 1.58-2.558 2.356-3.836-1.347 1.052-2.567 2.886-3.942 3.758.135-.161.2-.32.131-.451-.062.158-.433.367-.177.478a4.141 4.141 0 0 1-.315.176c-.176.239-.357.478-.537.718-.114.064.17.28.25.222-1.577 2.215-3.753 4.52-6.077 4.955-.038-.465-.891-.617-1.206-.452-.842-.69-.963-.188-1.944-.977.066-.088.132-.175.198-.26-.246-.175-.496-.35-.742-.526-1.122-1.796-.987-3.785-.467-5.834.135-.27.333-.149.478-.36.804-3.186 4.074-5.933 6.337-9.02-.032-.594-.035-1.194-.34-1.743-1.87-1.025-3.19 1.369-4.795 2.006-.728 1.149-1.639 1.149-2.398 2.106-.11-.07-.232-.216-.318-.125-.375.712.138 1.291-.735 2.08-.152.246.357-.101.205.141-.23.617-.936 1.301-1.355 1.946.526.036.291-.439.676-.624.103-.054-.385.563-.424.701-.034.115.16.155.105.273-.392.826-1.005 1.692-1.251 2.218 1.442-.755 2.256-3.678 3.288-5.076-.097 1.095-.7 2.268-1.233 3.43-.687.898-1.397 1.798-1.31 2.576-.367.415-.697 1.092-1.095 1.325.14-.212.169-.407.212-.604a5.95 5.95 0 0 1-.239.375c.06-.124.14-.26.244-.396zm52.957-8.491c-.056.259-.314.54-.66.83a.871.871 0 0 1-.071-.083c-.03.03-.059.058-.089.082l.06-.124c-.166-.264.037-.44.333-.604 1.246-2 3.31-2.967 4.9-4.562.355.258.916-.28 1.374-.424-.393.914-1.687 1.084-2.403 1.931-.22.26-.532.794-.945 1.008-.074.038-.297-.053-.387.007-.277.178-.623.65-1.01.963-.454.371-1.028.519-1.006.964a.316.316 0 0 0-.096.012zm67.107 9.79a4.992 4.992 0 0 0-.008.156c-.203.123-.057.47-.253.398a3.435 3.435 0 0 1-.021-.15 11 11 0 0 1-.192.256c.016-.345.08-.695.178-1.044a5.87 5.87 0 0 1 .618-2.175c-.89 1.106-1.309 2.518-1.095 3.606.232.07.06-.267.299-.387.19.057-.007.49.274.187.112.143-.242.443-.348.453-.208.811.277 1.405.587 2.093.05.103-.155.206-.13.306.134.51.945 1.038 1.712 1.579.365-.104.783.12 1.184.224-1.139.546-2.267 1.15-3.606.48-.264-.093.067-.277-.003-.4-1.174-.685-1.206-1.539-1.891-2.296.239-.217-.148-.487.21-.548-.256-1.05-.13-2.158-.235-3.232.65-.902.675-1.705 1.026-2.563.07-.227-.253-.03-.225-.25.91-2.126 1.392-4.098 2.27-6.36-.554 0-.885.324-1.377.437-.078.017-.327-.153-.442-.106-.887.35-1.368 1.594-2.282 1.888.186-.577.925-.964 1.307-1.571-.822.126-1.462 1.374-2.231 1.821.463-1.154 1.659-2.045 2.552-3.186-.226-.134-.39.08-.573.197.12-.621.815-.915 1.16-1.375-1.561.694-2.549 2.53-4.12 4.284.257-.023.436-.52.664-.73.303.98-1.67 1.995-1.676 3.002.418-.163.442-1.027.998-.894-.345.394-.5.524-.626.951-.956.157-.77 1.491-1.335 2.149.077.18-.032.387.094.56-1.535 2.486-2.558 5.195-4.78 7.591-.126-.114.12-.284-.007-.4-.467-.267-.752.564-1.174.577-.291-.183-.098-.444-.108-.67-1.386.086-1.797-1.439-1.941-2.233.289-.334.422-.824.454-1.271 3.304-3.927 4.829-7.774 6.83-11.625-.265.12-.581-.087-.844.01.537-.53 1.012-.613 1.38-1.124.658-.894.482-2.436 1.692-3.29.53.3 1.03.427 1.735 1.004.068.504.053 1.021-.045 1.552.151.063.345.373.44.106.073.144-.004.308-.162.484.204.003.344-.37.534-.423.284.073-.109.247.176.317.231-.044.457-.157.667-.328.23.274.38.1.577.2.594-.67 1.511-1.244 2.513-1.237.222-.237.144-.504.468-.47.277.093.154.246.003.4.355.05.425-.167.468-.47.58.607 1.06.32 1.423.59.243.067.035-.24.267-.214.172.377.359.751.963 1.061-.327.354.074.601-.323.968.137.094.27.187.407.28a1.36 1.36 0 0 0-.122.708c.19.056.306-.344.464-.471.207.714-.56 1.575-.756 2.349.298.657.073.994-.429 1.782-1.206 1.89-1.772 4.3-3.234 6.488zm.705-2.533c.225-.36.467-.71.716-1.045a4.828 4.828 0 0 0-.315.233c-.142.265-.277.537-.4.812zm2.35-2.618c.14.282-.012.603-.302.95-.554-.217.184-.629.303-.95zm-13.843-5.901c.085.865-1.385 1.89-1.287 2.863.243.195.368-.36.576-.38-.472.68-.738 1.803-1.439 2.247-.664 1.682-1.604 3.344-3.102 4.939-.127.212.112.366.089.561-.348.727-.83.606-1.197 1.232-.26-.222.242-.246.107-.424-.626.541-1.18 1.574-1.78 2.304.486-.1.857-.948 1.383-.797-.411.959-1.85 1.726-2.667 2.557-.06.337-.212.663-.552.898-.182-.205-.061-.454.118-.713-.577.511-1.21.639-1.797 1.09-.122-.115.115-.286-.007-.4-1.16.605-2.494-.128-3.664-.468-1.46-2.51-1.396-5.86 1.075-8.606.47-1.82 1.726-3.697 3.193-5.47 1.523-1.843 2.585-4.407 4.587-5.056 1.133.844 2.013 1.726 2 2.748-1.895 1.383-3.443 3.062-5.138 5.259.388.242 1.105-.572 1.537-1.282.105.898-1.941 1.662-1.709 2.752-.62.555-.846.948-1.352 1.716.196.14.26-.552.483-.25-.698 1.45-1.68 2.248-2.377 3.667.314-.107.546-.7.829-.995-.05.797-.745 1.695-.937 2.516.664-.353 1.257-.608 1.928-.996.937-.541 1.558-1.487 2.495-2.183.677-.508 1.739-.713 2.16-1.726.203-.189.435-.171.64-.333 1.798-2.059 3.395-4.32 4.228-6.617.408-.101.486-.404 1.025-.855-.213-.235-.307.26-.52.024.091-.42.56-.592.847-.885.445.212-.55 1.12-.449 1.575.274.124.422-.515.674-.512zm-1.9 3.996c.536-.41 1.028-1.361.942-1.905-.33.637-.885 1.299-.943 1.905zM120.952 20c-.026-.292.606-.64.798-.952.555.246-.554.637-.798.952zm2.841 0c.106.416-.34.775-.93.952-.092-.277.689-.64.93-.952zm-3.81 5.714c.142.435-.667.522-.817.953-.48-.248.623-.643.816-.953zm-1.388.023c.547.19-.23 1.026-.5.418.157-.197.289-.53.5-.418zm-8.044-20.975c1.387.026 2.686 1.617 2.781 2.603-.918.568-1.905.824-2.198 2.159-.8-1.496-.693-3.127-.583-4.762zm-5.105 10.99c.351.504.04 1.11.267 1.633-.119.263-.25.75-.555.863.213.24.332-.1.555.195-.321.57-.836 1.168-.66 1.661-2.07 2.732-4.52 6.263-5.678 9.329-.352-.13-.711-.296-.975.09-.41-.158.03-.447-.335-.616-.356-.165-.623.208-.938.308-.426-.587-.589-1.21-.938-1.81.67-1.976 1.93-4.043 2.79-6.049.521-.892 1.188-1.632 1.639-2.423.128-.23.108-.494.233-.704.529-.893 1.256-1.62 1.619-2.528.216-.549.074-1.26.873-1.415.884.373 1.388.824 2.103 1.467zM100 26.668c.253-1.032 1.149-1.986 1.905-2.857-.126.997-1.26 1.906-1.905 2.857zm5.714-17.328c-.32.147-.248.575-.595.665-.203-.505.085-1.083-.707-1.498-2.126.004-3.832 2.628-5.884 3.724-.894.478-2.147.518-3.004 2.016.56-.205.884-1.097 1.584-1.05-1.074 1.67-2.542 3.416-3.979 4.693.394-1.02 1.321-1.715 1.885-2.818a31.65 31.65 0 0 0-4.267 5.084c.34-.207.649-.582.969-.896-.031.862-1.033 1.882-1.363 2.794.353.017.598-.625.897-.946-.044.244-.204.836-.459.763-.703 1.447-.526 2.76-.968 4.168.119.022.224-.05.323-.164.122.628-.778 1.102-.938 1.811-.15 1.213-.119 2.908-1.594 3.52-.39-.13-.754-.094-1.073.224-.255-.24-.466-.237-.656-.074-.962-.461-.74-1.11-1.424-1.614.041-.545-.18-1.046-.024-1.605-1.161-.247-2.035-1.112-2.636-1.888.078-.124.18-.08.258-.214-.567-.582-.468-1.267-.94-1.865.145-.94-.032-1.831-.09-2.74.093-.272-.152.163-.244-.078-.02-.207-.115-.404.184-.661-.232.11-.276-.034-.33-.234-.985 1.166-1.02 2.186-2.086 3.365-.055.104.18.164.101.271-1.338 2.51-3.315 4.275-5.34 5.305-.255-.03.333-.087.404-.405-.455-.347-1.39-.01-1.512-.685-.241-.184-.418.063-.653-.074-.366-.785-.978-1.53-1.077-2.36.133-1.243.272-2.49.452-3.743 1.37-2.056 1.91-4.358 3.51-6.514.48-.646.965-1.561 1.566-2.253 1.105-1.27 2.464-2.901 3.966-3.312.957.695 2.028 1.37 2.67 2.112.14.19.126.4.044.625.276.02.439-.652.778-.234.058-.164.439-.374.157-.484.119-.227.346.21.455-.07.265.427.544.293.856.615.748.761.232 1.647.527 2.556-.268.331-.39.635-.378.923.283.11.134-.465.354-.345.336.599-.397 1.364-.037 1.959-.156.217-.126.405-.367.632-.044.103.126.17.217.254-.628.92-.431 1.711-1.04 2.63.422.127.28-.555.578-.778-.105 1.66-1.053 3.452-.71 5.047.418.3.833.598 1.25.895.462-.083.697-.936.782-1.323 1.6-3.978 4.702-7.915 6.432-11.966-1.077.307-2.114.893-3.391-.047-.058-.488-.81-.872-.802-1.37 2.277-1.204 4.543-2.494 6.938-2.968 1.54-2.874 3.123-5.926 4.733-8.714 2.277 1.447-.231 3.633.044 5.391-.621.632-.424 1.137-.431 1.675.19.097.34-.077.557.2.224-.21.496-.01.815-.013.096 0 .214-.167.324-.164.09.004.176.188.264.191.802.016 2.103-.144 2.908.294.741.404 1.186 1.113 1.217 1.765zM92.381 16.19c.365-.745 1.3-1.323 1.905-1.904-.015.698-1.245 1.043-1.905 1.904zm-8.153 6.667c.184-.358-.132-.639-.27-.952-.461.294.342.39-.12.677.133.09.258.178.39.275zm-1.37-9.524c-.824.279-1.701.237-2.403 1.229-.526.16-1.013.655-1.161 1.215-1.664 1.09-2.324 2.629-3.523 4.083.149-.07.266-.294.428-.284-.214 1.051-1.593 1.947-1.814 2.958-.056.064-.09.179.02.105.132-.3.187-.345.474-.342.024.473-.722 1.055-.574 1.513 3.364-2.54 6.547-6.828 8.552-10.477zm-7.61 7.62c-.105-.452.641-.883.933-.953.105.458-.688.623-.933.952zm18.085-1.905c-.29.635-.472 1.244-.913 1.904-.014-.106-.027-.216-.039-.322.298-.458.748-1.508.952-1.582zM76.19 7.978c-.023.287-.168.702-.437.86-1.412-.63-2.509.71-3.73 1.258-.09.165-.073.314-.265.495-.242.139.1-.273.171-.366-.151-.231-.205.171-.356-.06-1.1 1.08-2.314 1.413-3.384 2.677 1.134-.611 2.22-1.525 3.323-2.327-.205.802-1.396 1.251-2.025 1.785-1.389 2.09-3.686 4.171-5.25 6.537.04-.297.01-.495-.36-.455.101-.26.3-.538.28-.78-.313.635-1.594 1.908-1.03 2.598.168-.05.343-.581.62-.835-.075.647-1.04 1.564-1.403 2.429.356.036.437-.456.635-.723-.205 1.26-.955 2.604-1.51 3.92-.175.139.343.172.169.314-.347 1.072-.825 2.168-1.329 3.266-.538-.237-.333-.59-.43-.897-.378.297-.707.89-1.154.746-.047-.145-.024-.301-.07-.446-.196-.268-.29.115-.485-.152-.35-.38-.447-.798-.824-1.174.31-.664-.387-1.08-.155-1.677.067-.174.3-.317.38-.514.215-.522.35-1.106.605-1.624 1.342-2.71 1.84-5.817 3.138-8.533.084-.521-.067-1.01-.295-1.485.346-.373.813.033 1.156-.35.451.486 1.198.327 1.306.934.417-.165.814-.468 1.183-.92 2.419-.763 4.615-2.93 7.016-3.805.145-.171-.128-.28.155-.475.592-.313 1.783-.673 2.51-.558.702.11 1.237-.228 1.845.337zm-6.666 2.608c-.32.197-.564.996-.953.648.34-.051.56-1.092.953-.648zm-1.862 2.747c.321-.462.868-.479.612-.952-.145.31-.83.693-.612.952zm-1.948 1.905c.098-.33 1.284-1.675 1.905-1.905-.315.706-1.346 1.137-1.905 1.905zm4.762-.952c-.456.357-.416.796-.952.952.186-.3.286-.932.952-.952zm-1.924 1.904c.073.354-.257 1.129-.93.917-.058-.397.614-.633.93-.917zm-1.43.973c.554.215-.171.713-.336.732-.296-.124.013-.883.336-.732zm-6.668-4.419c.18.147.294-.126.498.153-1.032 1.898-2.251 5.795-4.721 6.78-.16.177 0 .304-.16.484-.61.39-1.219.782-1.808 1.301-1.683-.043-1.974 2.584-3.04 3.607-.271-.8.318-1.728.525-2.597-1.465 1.405-1.337 3.063-1.066 4.396 1.045.422 2.397-.3 3.578-1.056 1.066-.683 2.161-1.692 3.253-2.668.155.207 0 .46.225.653-1.51 1.538-1.795 3.616-3.15 5.112-.047.1.126.17.22.253-.631.379-1.224 1.012-1.951.809-.347.297-.68.7-1.126.4.173-.167.547-.204.526-.423-.685.18-1.655.053-2.528-.19-.475-.134-.41-.506-.745-.92-.485-.592-1.192-.895-.79-1.538-.443-.163-.225-.423-.575-.6a.984.984 0 0 0 .309-.675c-.402-1.006.21-2.168.183-3.23.828-1.612 1.801-3.49 2.474-4.895.574-.35.47-.743 1.028-1.356.128-.173-.062-.297-.076-.446 1.06-1.243 1.725-2.621 2.792-3.684.492-1.212 2.11-1.582 3.02-2.63.475.12.877-.213 1.328-.26.255.113.007.21-.08.243.214.013.3.353.755.626 1.302.22 1.24 1.545 1.102 2.351zm-8.365 12.018c.382.248-.31.901-.619.952-.217-.259.475-.642.62-.952zm-2.603-6.667c.216.27-.553.632-.88.953-.199-.283.504-.785.88-.953zM4.762 15.238c.117-.087.272-.006.397-.062 1.162-1.439 2.511-2.666 3.412-3.747-1.415 1.006-2.632 2.728-3.81 3.81zm10.476 8.057c.066-.137.158-.287.276-.438-.085.144-.17.288-.276.438zm16.19-9.937c-.902-.215-2.059 1.035-3.072 1.31-2.184 1.916-3.825 3.633-5.499 6.284 2.983-1.736 6.042-4.17 8.572-7.594zM14.287 25.714c.294-.94.667-1.097.952-1.904-.48.194-.949 1.347-.952 1.904zm-.953-1.037c.451-.256.4-.456.892-.867.25.18-.315 1.258-.892.867zm-4.762 4.847c.91-1.955 3.207-3.922 4.762-5.714-1.011 2.314-3.061 3.844-4.762 5.714zM3.85 17.143c-.206-.276.416-.623.88-.953.216.276-.748.65-.88.953zm29.875-2.731c.16-.177.343-.181.56.074-.57.32-.284 1.243-.93 1.704-.154-.539.579-1.249.37-1.778zm-3.163 10.35a.607.607 0 0 1-.052.066c-.014-.007-.02-.007-.034-.014.027-.019.06-.033.086-.052zM83.81 37.154l-.727-.011h-.726c-1.09.037.132.073.132.073l.826-.01.495-.052zm5.714 0l-1.453-.011h-1.452c-2.18.037.264.073.264.073l1.65-.01.99-.052zm-33.381 1.894h1.452l1.453.108-.99.496-1.652.096s-2.443-.35-.263-.7zm7.793.2l3.269-.155 3.271-.045-2.222.6-3.714.271s-5.503-.091-.604-.671zm-11.103-.2h.726l.727.108-.495.495-.826.096s-1.221-.35-.132-.7zM11.881 40h.726l.726.109-.495.495-.826.095s-1.22-.35-.131-.699z"/>
</svg>
