<svg xmlns="http://www.w3.org/2000/svg" width="189" height="32" viewBox="0 0 189 32">
    <g fill="none" fill-rule="nonzero">
        <path fill="#FEFFFF" d="M0 31.824c0-.08.081-.112.162-.064s.163.128.163.176c0 .032-.065.064-.163.064-.08 0-.162-.08-.162-.176zm139.413-7.072c-.763-.496-1.12-1.28-1.12-2.4 0-1.632.47-2.16 2.905-3.216.925-.4 1.705-.736 1.737-.736.033 0 .065 1.12.065 2.48 0 2.832-.146 3.408-1.006 3.92-.747.448-1.867.432-2.581-.048zm-61.632.4c-1.51-.544-2.613-1.92-2.872-3.584-.146-.896.243-2.352.779-2.896l.357-.368 3.1 3.088 3.117 3.088-.86.416c-1.17.56-2.484.656-3.62.256zm-.162-11.056c-1.314-1.936-1.25-4.192.13-4.896.666-.336 1.039-.304 1.607.176 1.234 1.008 1.039 3.488-.39 5.168-.243.272-.503.496-.568.496-.08 0-.422-.432-.779-.944zm43.663 11.328c-.406-.048-.844-.24-1.055-.448l-.357-.352-.049-8.928c-.049-10.4-.227-9.456 1.818-9.472 1.72-.016 2.678.336 3.49 1.248.86.944 1.12 2.048.876 3.52-.113.576-.357 1.296-.584 1.632-.536.8-1.834 1.472-3.052 1.568-.519.048-.957.144-.974.192-.016.048-.048.432-.08.832l-.05.736.926.096c1.233.096 2.435.624 3.165 1.36 2.013 2.032 1.753 6.208-.47 7.488-.812.48-2.354.704-3.604.528zM0 .16C0 .08.081 0 .179 0c.08 0 .113.08.064.16C.195.256.113.32.065.32.032.32 0 .256 0 .16z"/>
        <path fill="#048566" d="M.194 31.805C.064 31.675 0 30.86 0 29.184v-2.426l.437.13c.745.212 30.496.261 31.03.05.244-.115.503-.131.567-.066.065.05.114 1.123.114 2.344 0 1.66-.065 2.312-.227 2.507-.194.26-1.506.277-15.871.277C4.08 32 .34 31.951.194 31.805zm136.122-4.477c-2.85-.96-4.13-5.014-2.283-7.18.777-.927 1.344-1.236 3.466-1.92 1.02-.326 2.607-.88 3.53-1.237l1.652-.652v-1.286c0-2.1-.534-2.913-1.943-2.913-1.296 0-2.187.846-2.85 2.734-.47 1.335-.73 1.58-1.636 1.58-1.571 0-2.77-1.107-2.56-2.345.422-2.328 3.888-3.923 8.082-3.711 2.753.114 4.227.814 4.972 2.344.372.765.389.912.47 6.495.08 5.34.097 5.747.388 6.072.21.228.502.342.94.342h.615v.733c0 .7-.016.716-.599.846-.34.065-1.23.13-1.992.114-1.538 0-2.607-.374-3.304-1.123l-.388-.423-.923.586c-1.83 1.188-3.887 1.53-5.637.944zm5.361-2.653c.858-.521 1.004-1.107 1.004-3.989 0-1.384-.032-2.523-.065-2.523-.032 0-.81.342-1.732.749-2.43 1.074-2.9 1.611-2.9 3.272 0 1.14.357 1.937 1.118 2.442.713.488 1.83.504 2.575.049zm-66.79 2.458c-1.263-.358-1.975-.814-2.882-1.823-1.345-1.515-1.7-3.891-.843-5.73.47-.977 1.588-2.117 2.786-2.817l.68-.407-.55-.928c-1.215-2.018-1.345-3.907-.373-5.73.923-1.742 2.559-2.654 4.762-2.637 1.327.016 2.154.244 3.109.911 1.555 1.075 2.203 3.468 1.36 5.112-.453.879-1.473 1.856-2.559 2.426-.47.244-.858.537-.858.618 0 .098 1.134 1.335 2.51 2.768l2.51 2.604.325-.39c.68-.798 1.036-3.093.81-5.307l-.082-.814.891-.44c.486-.244 1.182-.456 1.539-.488.599-.05.664 0 1.004.602.291.52.372.895.372 1.872-.016 1.872-.81 3.533-2.623 5.47l-.794.846.923.814c1.36 1.189 2.478 1.823 3.434 1.937l.842.098v1.368l-.794.097c-1.91.228-4.858-.374-6.202-1.27-.713-.472-.827-.488-1.118-.146-.356.44-1.943 1.156-3.174 1.433-1.506.341-3.725.325-5.005-.05zm6.333-2.36l.858-.424-3.11-3.142-3.093-3.142-.356.375c-.534.553-.923 2.035-.777 2.946.47 3.142 3.611 4.786 6.478 3.386zM78.79 14.24c1.426-1.71 1.62-4.233.389-5.259-.567-.488-.94-.52-1.603-.179-.89.456-1.296 1.824-.972 3.175.194.797 1.344 2.767 1.62 2.767.064 0 .324-.228.566-.504zM184.92 27.1c-1.911-.277-2.77-.944-4.972-3.89-1.296-1.726-3.094-4.526-3.094-4.803 0-.195 2.51-3.744 3.92-5.567.793-1.01 1.49-1.759 1.83-1.905.42-.212 1.101-.26 3.06-.26h2.527v.65c0 .62-.016.652-.68.815-1.943.488-2.98 1.155-5.296 3.353l-1.36 1.302.858 1.205c1.215 1.71 2.284 3.077 3.92 4.982 1.57 1.823 2.137 2.36 2.882 2.686.437.195.486.309.486.911v.7l-1.571-.016c-.875-.016-2.008-.081-2.51-.163zm-142.811-.7c0-.716 0-.716.664-.83.729-.13 1.198-.537 1.36-1.188.162-.717.292-17.305.13-17.94-.162-.651-.777-.944-1.943-.96l-.697-.017V4l4.146.033 4.13.048 3.06 7.603c1.669 4.2 3.078 7.7 3.11 7.814.049.114 1.474-3.337 3.19-7.651L62.385 4h8.066v1.416l-1.07.098c-1.845.179-1.683-.781-1.683 10.044 0 10.663-.13 9.8 1.425 10.012l.842.114v1.432h-9.393v-.732c0-.684.032-.733.453-.733.745 0 1.636-.325 1.814-.651.194-.374.227-16.442.032-16.442-.08 0-1.7 4.054-3.627 9.002l-3.499 8.986-.955.05-.94.048-1.295-3.305c-.713-1.823-2.365-6.006-3.676-9.327l-2.381-6.024v7.163c.016 3.94.08 7.716.162 8.384.162 1.498.486 1.856 1.83 2.018l.907.115v1.448h-7.288V26.4z"/>
        <path fill="#048566" d="M92.008 26.301v-.699l.857-.11c.452-.064 1.002-.207 1.212-.334l.356-.223V6.195l-.84-.017c-3.073-.047-3.946.54-4.674 3.16-.162.573-.34 1.08-.388 1.128-.064.048-.388.112-.744.128l-.63.031V4.447h19.565v6.194h-.63c-.744 0-.76-.016-1.132-1.334-.695-2.446-1.552-3.113-4.026-3.113h-1.488l.032 9.402.049 9.403.404.206c.226.111.744.239 1.18.286l.76.095V27h-9.863v-.699zm19.727 0v-.683l1.1-.095c1.795-.175 1.649.667 1.649-9.815 0-8.83 0-9.037-.323-9.355a1.25 1.25 0 0 0-.76-.318c-.26 0-.728-.047-1.051-.095-.599-.095-.615-.127-.615-.794v-.699h6.129c7.68 0 8.974.175 10.801 1.477a4.37 4.37 0 0 1 1.65 2.208c.258.762.274 2.398.032 3.24-.372 1.318-1.65 2.557-3.315 3.208l-.76.286.938.286c1.81.556 2.91 1.477 3.784 3.113.34.635.388.92.388 2.54 0 1.684-.033 1.907-.453 2.733-.566 1.143-1.779 2.223-2.992 2.684-1.843.683-2.975.762-9.766.778h-6.436v-.699zm12.677-1.588c2.216-1.27 2.474-5.416.47-7.433-.728-.73-1.925-1.255-3.154-1.35l-.921-.095.048-.73c.032-.398.065-.78.08-.827.017-.047.454-.143.971-.19 1.213-.096 2.506-.763 3.04-1.557.226-.333.469-1.048.582-1.62.243-1.461-.016-2.557-.873-3.494-.808-.905-1.762-1.255-3.476-1.239-2.038.016-1.86-.92-1.811 9.403l.048 8.862.356.35c.711.714 3.363.666 4.64-.08zm25.484 1.588c0-.667.017-.698.566-.794 1.051-.206 1.051-.175 1.051-6.4 0-5.4-.016-5.623-.323-5.925-.178-.174-.485-.317-.68-.317-.888 0-1.099-.16-1.099-.81 0-.509.065-.62.372-.7.34-.063 5.676-.873 5.821-.873.033 0 .146.509.26 1.112l.21 1.128.387-.254c2.377-1.525 3.364-1.89 5.24-1.89 1.875 0 2.926.38 3.848 1.43 1.019 1.127 1.051 1.301 1.148 7.384.081 4.178.146 5.56.307 5.75.114.127.502.286.857.35.631.11.631.11.631.81V27h-8.408v-1.414l.792-.11c.436-.048.89-.16 1.002-.239.178-.111.227-1.064.227-5.178 0-4.733-.017-5.098-.324-5.685-.776-1.525-3.088-1.78-4.56-.509-1.002.874-1.035 1.033-1.018 6.353 0 3.224.064 4.844.177 4.987.097.111.372.207.615.207.97 0 1.148.143 1.148.89V27h-8.247v-.699zm19.566 0c0-.698.016-.715.566-.826 1.116-.206 1.051.43 1.051-10.164 0-9.387 0-9.593-.323-9.91-.178-.176-.485-.318-.68-.318-.889 0-1.099-.16-1.099-.81 0-.715-.307-.62 3.735-1.176 1.456-.19 2.717-.302 2.798-.222.226.19.226.302.242 11.626l.017 10.593.371.159c.194.08.696.19 1.116.238l.744.095-.032.668-.049.667-4.22.047-4.237.032v-.699zM0 12.102C0 3.192.049.334.194.191.34.048 4.091 0 16.089 0h15.718L32 .413c.227.492.26 22.87.033 23.236-.275.413-.55.063-1.23-1.573a9432.897 9432.897 0 0 0-8.036-19.265c-.178-.413-.42-.746-.517-.746-.259 0-5.013 11.514-4.9 11.832.081.19.405.238 1.633.238h1.537l.727-1.509c.388-.825.825-1.508.938-1.508.275 0 5.175 11.784 5.11 12.277-.048.35-.065.35-4.366.397-5.352.047-5.029.19-4.948-2.303.065-2.271.065-2.271 2.975-2.271 1.763 0 2.2-.048 2.264-.239.097-.222-.647-2.366-.954-2.731-.113-.16-1.536-.207-6.16-.207-3.3 0-6.08.064-6.194.127-.242.143-1.018 2.128-1.018 2.59 0 .174.097.348.226.396.13.048 1.196.095 2.36.111 2.652.032 2.588-.016 2.588 2.335 0 1.445-.049 1.731-.291 1.97-.275.238-.776.254-4.56.222-3.59-.048-4.269-.08-4.398-.286-.21-.318 4.705-12.293 5.06-12.357.163-.031.486.445.971 1.43l.712 1.477h1.536c1.439 0 1.536-.016 1.584-.334.065-.46-4.56-11.562-4.85-11.626-.146-.015-.97 1.811-2.54 5.56C3.04 17.883.793 23.251.632 23.537c-.081.158-.26.286-.388.286-.21 0-.243-1.541-.243-11.722z"/>
    </g>
</svg>
