<svg xmlns="http://www.w3.org/2000/svg" width="32" height="32" viewBox="0 0 32 32">
    <path fill="#D2DCE4" fill-rule="nonzero" d="M16 0C7.164 0 0 7.164 0 16s7.164 16 16 16 16-7.164 16-16S24.836 0 16 0zm10.337 24.407c-.348-.782-1.052-1.322-2.494-1.655-3.058-.705-5.904-1.324-4.524-3.927C23.512 10.903 20.429 6.667 16 6.667c-4.517 0-7.525 4.398-3.319 12.158 1.422 2.619-1.53 3.236-4.524 3.927-1.445.333-2.144.877-2.489 1.661A13.271 13.271 0 0 1 2.667 16C2.667 8.648 8.648 2.667 16 2.667S29.333 8.648 29.333 16c0 3.185-1.126 6.11-2.996 8.407z"/>
</svg>
