<?xml version="1.0" encoding="UTF-8"?>
<svg width="32px" height="32px" viewBox="0 0 32 32" version="1.1" xmlns="http://www.w3.org/2000/svg" xmlns:xlink="http://www.w3.org/1999/xlink">
    <!-- Generator: Sketch 52.6 (67491) - http://www.bohemiancoding.com/sketch -->
    <title>interview-active-step</title>
    <desc>Created with Sketch.</desc>
    <g id="Page-1" stroke="none" stroke-width="1" fill="none" fill-rule="evenodd">
        <path d="M16,0 C7.164,0 0,7.164 0,16 C0,24.836 7.164,32 16,32 C24.836,32 32,24.836 32,16 C32,7.164 24.836,0 16,0 Z M26.3373333,24.4066667 C25.9893333,23.6253333 25.2853333,23.0853333 23.8426667,22.752 C20.7853333,22.0466667 17.9386667,21.428 19.3186667,18.8253333 C23.512,10.9026667 20.4293333,6.66666667 16,6.66666667 C11.4826667,6.66666667 8.47466667,11.0653333 12.6813333,18.8253333 C14.1026667,21.444 11.1506667,22.0613333 8.15733333,22.752 C6.712,23.0853333 6.01333333,23.6293333 5.668,24.4133333 C3.79466667,22.116 2.66666667,19.188 2.66666667,16 C2.66666667,8.648 8.648,2.66666667 16,2.66666667 C23.352,2.66666667 29.3333333,8.648 29.3333333,16 C29.3333333,19.1853333 28.2066667,22.1106667 26.3373333,24.4066667 Z" id="interview-active-step" fill="#0084FF" fill-rule="nonzero"></path>
    </g>
</svg>