<?xml version="1.0" encoding="UTF-8"?>
<svg width="32px" height="32px" viewBox="0 0 32 32" version="1.1" xmlns="http://www.w3.org/2000/svg" xmlns:xlink="http://www.w3.org/1999/xlink">
    <!-- Generator: Sketch 52.6 (67491) - http://www.bohemiancoding.com/sketch -->
    <title>phone-active</title>
    <desc>Created with Sketch.</desc>
    <g id="Page-1" stroke="none" stroke-width="1" fill="none" fill-rule="evenodd">
        <g id="phone-active" fill-rule="nonzero">
            <path d="M16,0 C7.164,0 0,7.164 0,16 C0,24.836 7.164,32 16,32 C24.836,32 32,24.836 32,16 C32,7.164 24.836,0 16,0 Z" id="Phone-Active" fill="#FAD000"></path>
            <g id="iconmonstr-gear-1" transform="translate(4.000000, 4.000000)" fill="#FFFFFF">
                <g id="iconmonstr-time-6">
                    <path d="M11,6 L11,14 L18,14 L18,12 L13,12 L13,6 L11,6 Z M21.854,13.683 L23.852,13.842 C23.72,14.696 23.501,15.518 23.2,16.302 L21.4,15.397 C21.6,14.846 21.753,14.274 21.854,13.683 Z M19.306,21.509 L17.893,20.066 C17.407,20.422 16.887,20.734 16.338,20.999 L17.007,22.898 C17.828,22.521 18.598,22.054 19.306,21.509 Z M20.532,17.2 C20.197,17.746 19.813,18.257 19.383,18.728 L20.787,20.161 C21.37,19.534 21.886,18.845 22.326,18.103 L20.532,17.2 Z M-3.55271368e-15,12 C-3.55271368e-15,18.627 5.375,24 12.004,24 C13.085,24 14.128,23.844 15.124,23.576 L14.459,21.682 C13.672,21.882 12.852,22 12.004,22 C6.488,22 2.001,17.514 2.001,12 C2.001,6.486 6.488,2 12.004,2 C14.239,2 16.297,2.744 17.963,3.989 L15.913,6.038 L22.928,7.392 L21.573,0.379 L19.389,2.562 C17.353,0.964 14.794,3.99680289e-15 12.004,3.99680289e-15 C5.375,3.99680289e-15 -7.10542736e-15,5.373 -7.10542736e-15,12 Z M23.773,9.641 L21.697,9.641 C21.86,10.302 21.958,10.985 21.985,11.688 L24,11.849 C23.99,11.094 23.915,10.355 23.773,9.641 Z" id="Shape"></path>
                </g>
            </g>
        </g>
    </g>
</svg>