<svg xmlns="http://www.w3.org/2000/svg" width="159" height="55" viewBox="0 0 159 55">
    <g fill="none" fill-rule="evenodd">
        <path fill="#D22F2F" fill-rule="nonzero" d="M103.85 39.772c-6.567 4.632-14.324 9.48-22.658 14.58l-.325.18c-.108.072-.144.216-.072.359.072.108.217.143.36.072l.29-.144c7.07-3.663 15.225-8.044 23.378-12.533.037-.037.073-.037.144-.072a10.008 10.008 0 0 1-1.118-2.442zm43.005-34.656c-10.318-11.348-76.74-1.15-104.989 4.992l-.65.143c-.143.036-.216.144-.216.288.036.143.144.215.289.215l.65-.143c23.378-4.13 72.048-9.876 82.547.466 3.21 3.16 2.417 7.219-1.262 11.995 1.984 1.293 3.427 3.304 4.076 5.818 14.432-9.589 24.137-18.71 19.555-23.774z"/>
        <g fill="#004879">
            <path fill-rule="nonzero" d="M108.521 37.16c.145 3.988 2.67 7.258 5.988 7.258 6.42 0 9.124-7.834 8.944-13.08-.144-3.99-2.742-7.26-6.023-7.26-5.555 0-9.089 7.799-8.909 13.081zm-3.39-.216c-.252-6.828 5.121-13.764 12.912-13.764 5.193 0 8.619 3.45 8.8 8.732.252 7.188-4.761 13.765-12.912 13.765-5.193 0-8.62-3.45-8.8-8.733zM31.45 35.147c-.289.108-.65.216-1.082.287-.433.109-1.262.252-2.416.432-.794.143-1.37.287-1.695.539-.325.216-.505.503-.541.826-.072.36.036.647.36.863.325.215.83.323 1.551.323.541 0 1.082-.072 1.623-.251.541-.18.974-.396 1.335-.683.252-.216.432-.503.577-.827.036-.251.144-.754.288-1.51zm6.78-4.205c-.036.611-.144 1.186-.288 2.12l-1.154 6.397c-.108.576.108 1.007.65 1.33l-.037.252h-6.564l-.072-1.618c-.938.575-2.092 1.042-3.138 1.33-1.045.251-1.875.395-3.137.395-2.128 0-3.318-.215-4.148-.934-.866-.755-1.262-1.258-1.226-2.3.036-.61.324-1.366.793-1.905.469-.539 1.082-.898 1.731-1.222.685-.323 1.479-.539 2.633-.718 1.154-.18 2.777-.36 4.941-.54 1.118-.107 1.84-.359 2.164-.467.469-.18.613-.359.685-.718.108-.647-.072-1.042-.973-1.222-2.345-.467-6.78.287-9.053.862l1.226-3.342c2.994-.431 5.843-.719 8.8-.719 4.689-.036 6.204 1.294 6.168 3.02zM57.2 41.041l2.272-12.794h6.276L63.475 41.04H57.2zM59.833 25.3c.18-1.042 1.84-1.905 3.715-1.905 1.875 0 3.21.863 3.029 1.905-.18 1.042-1.875 1.905-3.715 1.905-1.875 0-3.246-.863-3.03-1.905zm28.203 9.883a5.79 5.79 0 0 1-1.082.287c-.433.108-1.262.252-2.452.432-.794.143-1.37.287-1.695.539a1.398 1.398 0 0 0-.541.826c-.073.36.072.647.36.862.325.216.83.324 1.587.324.541 0 1.082-.072 1.623-.252.541-.18.974-.395 1.334-.682a1.85 1.85 0 0 0 .541-.827c.073-.251.18-.755.325-1.51zm6.744-4.205c-.036.611-.144 1.186-.324 2.12l-1.118 6.397c-.108.575.108 1.007.649 1.33l-.036.216h-6.564l-.036-1.618a13.95 13.95 0 0 1-3.138 1.33c-1.046.288-1.875.395-3.138.395-2.127 0-3.318-.215-4.147-.934-.866-.755-1.262-1.258-1.226-2.3.036-.61.324-1.366.793-1.905.469-.539 1.082-.898 1.731-1.222.685-.323 1.48-.539 2.633-.754 1.154-.18 2.777-.36 4.941-.54 1.118-.107 1.803-.359 2.128-.466.469-.18.649-.36.721-.755.108-.647-.108-1.042-.974-1.222-2.38-.468-6.78.287-9.052.862l1.226-3.342c3.03-.431 5.807-.719 8.8-.719 4.653.072 6.167 1.402 6.131 3.127zm-76.53 5.463c-2.057.395-3.175.575-5.194.575-2.994 0-5.374-1.474-5.266-4.205.108-1.797 2.236-5.642 7.718-5.642 1.731 0 3.066.287 4.869 1.33l.793-4.42c-2.452-.935-4.075-1.079-6.203-1.043C7.79 23.108.902 26.342.072 32.955c-.865 6.72 7.358 8.41 11 8.373 2.092 0 4.292-.108 6.348-.287l.83-4.6zm50.96-8.266l.433-2.588 6.564-1.437-.686 4.025h3.21l-.613 2.587h-3.102l-1.875 10.279s-6.311-.036-6.348 0l1.875-10.242h-2.38l.469-2.588h2.452v-.036zm31.954 12.866h-6.42l3.21-17.825 6.24.18-3.03 17.645zm-52.26-9.775c-.829 0-1.55.251-2.235.754-.65.503-1.082 1.222-1.226 2.193-.18 1.114-.072 1.905.36 2.408.433.502 1.083.754 1.948.754.577 0 1.154-.107 1.587-.323.54-.288.901-.575 1.226-1.042.36-.503.577-1.042.685-1.689.18-1.006.036-1.76-.433-2.264-.468-.54-1.082-.791-1.911-.791zM37.473 45.46l3.066-17.142h5.518l-.433 2.192c.469-.647 1.226-1.186 2.308-1.617 1.046-.431 2.272-.755 3.57-.755 1.443 0 2.308.072 3.39.647 1.082.575 1.804 1.366 2.236 2.444.398 1.042.506 2.192.29 3.486-.361 2.12-1.407 3.773-3.103 4.995-1.695 1.222-3.21 1.545-5.337 1.545-.758 0-1.407-.072-1.948-.215-.504-.144-.938-.288-1.262-.503a7.03 7.03 0 0 1-1.046-.935l-1.01 5.858h-6.239zm113.895-12.614c-.036-1.042-.541-1.725-1.623-1.725-2.56 0-5.301 5.03-5.77 7.044 4.183 0 7.465-2.516 7.393-5.32zm.54 7.87l.506.324c-1.263 2.551-3.823 4.6-6.817 4.6-2.452 0-4.471-1.618-4.58-4.672-.18-5.463 4.941-10.566 9.16-10.566 1.804 0 3.499.79 3.571 2.732.144 4.348-5.987 5.678-10.026 5.786-.144.467-.18.898-.144 1.617.072 1.797 1.154 3.342 3.426 3.342 1.948-.072 3.895-1.618 4.905-3.163z"/>
            <path d="M126.734 32.703a12.181 12.181 0 0 1 1.443-.144c.469 0 .902.072.902.54 0 .287-.47 2.228-.577 2.659l-.974 4.312c-.397 1.761-.83 3.594-1.19 5.067h2.524l1.406-6.791c4.328-4.457 5.988-5.93 6.997-5.93.47 0 .758.252.794.79.036.79-.47 2.588-.65 3.091l-1.442 4.96c-.325 1.114-.578 2.12-.541 2.839.036 1.078.721 1.58 1.695 1.58 1.84 0 3.174-1.904 4.327-3.773l-.323-.61c-.47.754-1.551 2.407-2.417 2.407-.288 0-.54-.18-.54-.647-.037-.575.216-1.438.396-2.013l1.587-5.822c.433-1.617.649-2.623.613-3.198-.036-1.078-.685-1.58-1.66-1.58-1.658 0-3.858 1.185-8.51 6.54h-.073l.577-2.588c.325-1.437.613-2.911.938-3.917-1.623.575-3.895 1.222-5.338 1.51l.036.718z"/>
        </g>
        <path fill="#004879" fill-rule="nonzero" d="M155 28c0-1.161.928-2 2.016-2s1.984.839 1.984 2-.928 2-1.984 2c-1.12 0-2.016-.839-2.016-2zm2.016 1.677c.896 0 1.6-.71 1.6-1.677 0-.935-.704-1.645-1.6-1.645-.896 0-1.6.71-1.6 1.645-.032.968.672 1.677 1.6 1.677zm-.448-.516h-.352v-2.29h.864c.544 0 .8.194.8.645 0 .42-.256.58-.608.645l.64 1h-.384l-.608-1h-.384v1h.032zm.416-1.29c.288 0 .544-.032.544-.387 0-.29-.256-.323-.512-.323h-.48v.71h.448z"/>
    </g>
</svg>
