<?xml version="1.0" encoding="UTF-8"?>
<svg width="128px" height="38px" viewBox="0 0 128 38" version="1.1" xmlns="http://www.w3.org/2000/svg" xmlns:xlink="http://www.w3.org/1999/xlink">
    <!-- Generator: Sketch 52.6 (67491) - http://www.bohemiancoding.com/sketch -->
    <title>white-logo</title>
    <desc>Created with Sketch.</desc>
    <defs>
        <polygon id="path-1" points="50.6473971 37.5960848 53.8762309 37.5960848 53.8762309 36.9934076 50.6473971 36.9934076 50.6473971 37.5960848"></polygon>
        <polygon id="path-3" points="56.7055963 37.5960848 64.1041611 37.5960848 64.1041611 36.6870457 56.7055963 36.6870457"></polygon>
        <polygon id="path-5" points="13.8682682 37.5960848 26.1781047 37.5960848 26.1781047 36.9934076 13.8682682 36.9934076 13.8682682 37.5960848"></polygon>
        <polygon id="path-7" points="10.5110718 37.5960848 12.2463785 37.5960848 12.2463785 37.2654326 10.5110718 37.2654326 10.5110718 37.5960848"></polygon>
    </defs>
    <g id="Revision-2" stroke="none" stroke-width="1" fill="none" fill-rule="evenodd">
        <g id="Login-Desktop-Generic" transform="translate(-187.000000, -108.000000)">
            <g id="Group" transform="translate(150.000000, 75.000000)">
                <g id="Bitmap">
                    <g id="white-logo" transform="translate(37.000000, 33.000000)">
                        <g>
                            <path d="M127.813498,13.7578435 C127.999055,14.4216913 127.313525,15.2216152 127.138277,15.9401478 C127.405015,16.5505826 127.203995,16.8647022 126.754277,17.5959522 C125.567485,19.5302674 125.073954,22.0508543 123.440021,24.2369739 C123.503162,22.8978326 124.28276,21.4925609 125.134518,20.2996696 C123.686142,21.3221478 122.915565,23.2323 123.173283,24.5956043 C123.380746,24.6617348 123.227404,24.3476152 123.440021,24.2369739 C123.610115,24.2891152 123.434867,24.6922565 123.686142,24.4099304 C123.786652,24.543463 123.469659,24.8219739 123.374303,24.8321478 C123.188746,25.5850174 123.623001,26.1369522 123.89876,26.7753652 C123.94386,26.8720174 123.760881,26.9673978 123.782787,27.0602348 C123.902626,27.5345935 124.628102,28.0254848 125.312344,28.5278217 C125.639646,28.4311696 126.013337,28.638463 126.371565,28.7351152 C125.353579,29.2438109 124.345901,29.8046478 123.1488,29.1814957 C122.912988,29.0950174 123.208075,28.9233326 123.144934,28.8088761 C122.096021,28.1742783 122.067672,27.380713 121.455592,26.6761696 C121.669498,26.4752348 121.324156,26.2234304 121.643726,26.1674739 C121.414357,25.19205 121.527753,24.1619413 121.433686,23.1636261 C122.01484,22.3268217 122.036746,21.5803109 122.351162,20.7829304 C122.413015,20.5718217 122.12437,20.7549522 122.150142,20.5502022 C122.963243,18.5751913 123.393632,16.743887 124.178384,14.6417022 C123.682277,14.6417022 123.387189,14.9418326 122.94778,15.047387 C122.878196,15.0626478 122.65527,14.9049522 122.552183,14.9481913 C121.759699,15.2737565 121.32931,16.4297674 120.513632,16.7031913 C120.67986,16.1665174 121.339619,15.8066152 121.681095,15.2432348 C120.946599,15.3602348 120.374464,16.5200609 119.686357,16.9359196 C120.101283,15.8625717 121.169525,15.0346696 121.967162,13.9753109 C121.766142,13.8506804 121.619243,14.0490717 121.455592,14.1584413 C121.562545,13.5810717 122.183646,13.3076478 122.491619,12.8803435 C121.097364,13.5251152 120.214679,15.2305174 118.810115,16.860887 C119.039485,16.8392674 119.19927,16.3776261 119.404156,16.1817783 C119.67476,17.0936152 117.911968,18.0359739 117.905525,18.9719739 C118.279216,18.820637 118.301122,18.0168978 118.798518,18.1415283 C118.490545,18.5077891 118.351377,18.6286043 118.23927,19.025387 C117.384934,19.1703652 117.551162,20.4103109 117.044746,21.0220174 C117.11433,21.1886152 117.016397,21.3806478 117.129793,21.5421587 C115.757444,23.851637 114.842545,26.3696804 112.858115,28.5952239 C112.744719,28.4896696 112.965068,28.3319739 112.851672,28.2238761 C112.432881,27.975887 112.179028,28.7478326 111.80276,28.7592783 C111.541176,28.5888652 111.713847,28.3472348 111.704827,28.1373978 C110.466491,28.2175174 110.099243,26.8008 109.970384,26.0631913 C110.228102,25.752887 110.347941,25.2963326 110.37629,24.8817457 C113.328451,21.2318543 114.69178,17.6582674 116.479055,14.0808652 C116.244532,14.1915065 115.961042,13.9994739 115.72523,14.0897674 C116.205874,13.5963326 116.62982,13.5187565 116.959699,13.0443978 C117.547297,12.2139522 117.390089,10.7819739 118.471216,9.9884087 C118.945417,10.2669196 119.39127,10.3851913 120.022679,10.9205935 C120.083243,11.3898652 120.070357,11.8693109 119.981444,12.3627457 C120.116746,12.4212457 120.289417,12.7099304 120.374464,12.4619413 C120.440183,12.5954739 120.371887,12.7468109 120.230142,12.912137 C120.411834,12.9146804 120.538115,12.5674957 120.708209,12.5178978 C120.962062,12.5853 120.610277,12.7468109 120.865417,12.8116696 C121.071592,12.7722457 121.272612,12.6666913 121.462035,12.5089957 C121.665632,12.7633435 121.800934,12.6018326 121.977471,12.6946696 C122.507082,12.0715174 123.327914,11.5386587 124.222196,11.5437457 C124.420639,11.3237348 124.351055,11.0757457 124.640988,11.1075391 C124.888397,11.1940174 124.778867,11.3364522 124.643565,11.478887 C124.960558,11.5259413 125.023699,11.3237348 125.061068,11.0414087 C125.58037,11.6060609 126.01076,11.3402674 126.334196,11.5908 C126.550679,11.6531152 126.365122,11.3669739 126.572585,11.3924087 C126.725928,11.742137 126.893444,12.0905935 127.433364,12.3780065 C127.140854,12.707387 127.499082,12.9363 127.144719,13.2771261 C127.267136,13.3636043 127.385686,13.4513543 127.508102,13.5378326 C127.414035,13.7667457 127.374089,13.984213 127.398572,14.1953217 C127.568666,14.247463 127.671753,13.8761152 127.813498,13.7578435" id="Fill-1" fill="#FFFFFF"></path>
                            <path d="M126.647839,18.6251707 C126.713557,18.7587033 126.641396,18.9100402 126.503517,19.0753663 C126.239356,18.9723554 126.591141,18.7777793 126.647839,18.6251707" id="Fill-4" fill="#FFFFFF"></path>
                            <path d="M125.133874,20.299288 C124.282115,21.4921793 123.503807,22.8974511 123.440666,24.2365924 C123.22676,24.3485054 123.381391,24.6613533 123.173928,24.5964946 C122.916209,23.2319185 123.685498,21.3217663 125.133874,20.299288" id="Fill-6" fill="#FFFFFF"></path>
                            <path d="M113.81876,13.6400804 C113.897364,14.4361891 112.527592,15.382363 112.619082,16.2776674 C112.844585,16.4582543 112.961847,15.9470152 113.156424,15.9279391 C112.715726,16.5549065 112.468317,17.5901022 111.815001,17.9983304 C111.196478,19.5485804 110.318948,21.0810261 108.924693,22.5498848 C108.804854,22.7457326 109.02778,22.8881674 109.007162,23.0674826 C108.682438,23.7376891 108.234008,23.6257761 107.891243,24.2018739 C107.648988,23.9983957 108.118035,23.9755043 107.991753,23.81145 C107.406733,24.3112435 106.892585,25.2625043 106.333337,25.9352543 C106.785632,25.8424174 107.130974,25.0615696 107.620639,25.2001891 C107.237928,26.0840478 105.896505,26.7911348 105.136236,27.5567217 C105.079538,27.8670261 104.939082,28.1671565 104.6208,28.3846239 C104.451995,28.1951348 104.564102,27.9662217 104.731619,27.7271348 C104.194277,28.19895 103.602813,28.31595 103.056451,28.7318087 C102.943055,28.6262543 103.163404,28.4685587 103.050008,28.3630043 C101.970169,28.9212978 100.725391,28.2447326 99.6365315,27.9318848 C98.2757799,25.619863 98.335055,22.5308087 100.637766,20.0013196 C101.074599,18.3238957 102.245928,16.5943304 103.613122,14.9601457 C105.033149,13.2623739 106.022787,10.8994826 107.887377,10.3017652 C108.944021,11.0787978 109.763565,11.8914391 109.750679,12.8337978 C107.98531,14.1080804 106.543377,15.655787 104.963565,17.6791239 C105.32437,17.90295 105.993149,17.1526239 106.396478,16.49895 C106.493122,17.3255804 104.586008,18.0301239 104.80378,19.0347978 C104.225203,19.546037 104.015162,19.9084826 103.543538,20.6155696 C103.72523,20.745287 103.785793,20.1068739 103.993256,20.3866565 C103.342518,21.7219826 102.428907,22.4570478 101.778169,23.7656674 C102.070679,23.6664717 102.287162,23.1208957 102.551323,22.8474717 C102.503646,23.582537 101.856773,24.4104391 101.677659,25.1671239 C102.296183,24.840287 102.848988,24.6050152 103.473954,24.2489283 C104.347619,23.7504065 104.926196,22.8779935 105.79986,22.237037 C106.429981,21.769037 107.419619,21.5795478 107.812639,20.6460913 C108.000773,20.4731348 108.217256,20.4883957 108.409256,20.3396022 C110.084424,18.4421674 111.572746,16.3590587 112.348478,14.241613 C112.728612,14.1487761 112.800773,13.8689935 113.303323,13.4544065 C113.106169,13.2369391 113.017256,13.6922217 112.820102,13.4760261 C112.905149,13.0881457 113.341981,12.93045 113.608719,12.6608413 C114.023646,12.8554174 113.09586,13.6922217 113.189928,14.1118957 C113.445068,14.2263522 113.582948,13.6362652 113.81876,13.6400804 M111.758303,17.3166783 C112.107511,16.9758522 112.427082,16.182287 112.370384,15.7295478 C112.156478,16.259863 111.795672,16.8117978 111.758303,17.3166783 M109.857632,19.2611674 C110.00582,18.9190696 110.677176,18.4943087 110.342142,18.2285152 C110.224881,18.5667978 109.842169,18.9445043 109.857632,19.2611674" id="Fill-8" fill="#FFFFFF"></path>
                            <path d="M112.389584,19.2420913 C112.442416,19.5765587 112.216913,19.8652435 111.91796,20.0076783 C111.87157,19.7851239 112.267168,19.4926239 112.389584,19.2420913" id="Fill-10" fill="#FFFFFF"></path>
                            <path d="M112.370899,15.7295478 C112.427597,16.182287 112.106738,16.9758522 111.758819,17.3166783 C111.796188,16.8117978 112.156993,16.259863 112.370899,15.7295478" id="Fill-12" fill="#FFFFFF"></path>
                            <path d="M110.341756,18.2282609 C110.678078,18.4953261 110.005434,18.920087 109.858534,19.260913 C109.841783,18.94425 110.225783,18.5665435 110.341756,18.2282609" id="Fill-14" fill="#FFFFFF"></path>
                            <path d="M108.752021,24.1746587 C108.824183,24.543463 108.415699,24.6184957 108.340961,24.9834848 C108.098706,24.7723761 108.654089,24.4379087 108.752021,24.1746587" id="Fill-16" fill="#FFFFFF"></path>
                            <path d="M107.976161,24.7201076 C108.236456,24.8104011 107.866631,25.2071837 107.737772,24.9184989 C107.81251,24.825662 107.875651,24.6679663 107.976161,24.7201076" id="Fill-18" fill="#FFFFFF"></path>
                            <path d="M100.814046,4.84778478 C101.957026,4.86940435 103.029133,6.21490435 103.107737,7.04916522 C102.350046,7.52988261 101.536945,7.74607826 101.29469,8.87538261 C100.634932,7.61000217 100.722556,6.23016522 100.814046,4.84778478" id="Fill-20" fill="#FFFFFF"></path>
                            <path d="M96.796349,14.8459435 C97.123651,15.3266609 96.8337181,15.9065739 97.045047,16.4050957 C96.9342282,16.6569 96.8118121,17.1210848 96.5296107,17.2304543 C96.7267651,17.4593674 96.8375839,17.1338022 97.045047,17.4161283 C96.746094,17.9617043 96.2680268,18.5327152 96.4316779,19.0032587 C94.5129664,21.6141391 92.238604,24.9867913 91.1639195,27.9168783 C90.8366174,27.7922478 90.5041611,27.6345522 90.2593289,28.0033565 C89.8791946,27.8507478 90.2876779,27.5760522 89.9487785,27.4145413 C89.6188993,27.2555739 89.3702013,27.6129326 89.0776913,27.708313 C88.682094,27.1474761 88.5313289,26.5523022 88.2078926,25.9787478 C88.8302819,24.0902152 89.9990336,22.1164761 90.7966711,20.1999652 C91.2798926,19.3479 91.8997047,18.640813 92.3172081,17.8841283 C92.4357584,17.6641174 92.4177181,17.4135848 92.5336913,17.2113783 C93.0233557,16.359313 93.6985772,15.6649435 94.0348993,14.7963457 C94.2359195,14.2723891 94.1044832,13.5932804 94.8454228,13.444487 C95.6649664,13.8018457 96.1340134,14.2316935 96.796349,14.8459435 M91.7012617,25.5450848 C92.2798389,24.6052696 93.2965369,23.70615 93.4099329,22.7205522 C92.7308456,23.5827913 91.9267651,24.52515 91.7012617,25.5450848" id="Fill-22" fill="#FFFFFF"></path>
                            <path d="M96.8496966,9.08572826 C96.5546094,9.22180435 96.6203275,9.61858696 96.2994685,9.70252174 C96.1113342,9.23452174 96.3780725,8.69784783 95.646153,8.31378261 C93.6797638,8.31632609 92.1025289,10.7504348 90.2057235,11.7678261 C89.3797369,12.2103913 88.2200054,12.2485435 87.4288107,13.6372826 C87.9468242,13.4477935 88.2457772,12.6198913 88.8926497,12.6631304 C87.9004349,14.2133804 86.543549,15.8323043 85.2137235,17.0162935 C85.5783946,16.0701196 86.436596,15.4253478 86.9571866,14.4028696 C85.6003007,15.7114891 84.2820725,17.2452065 83.0128107,19.1184783 C83.3259383,18.9264457 83.6120054,18.5779891 83.9070926,18.2867609 C83.8787436,19.0866848 82.952247,20.0328587 82.6481396,20.8785652 C82.974153,20.8950978 83.200945,20.2999239 83.4767034,20.0010652 C83.436757,20.2274348 83.2885691,20.7768261 83.052757,20.7081522 C82.4033074,22.0511087 82.5656698,23.2694348 82.1571866,24.5742391 C82.2680054,24.5958587 82.3646497,24.5284565 82.4561396,24.4229022 C82.5695356,25.0053587 81.737106,25.4453804 81.5889181,26.1028696 C81.4510389,27.2283587 81.4793879,28.8002283 80.1160591,29.3674239 C79.7552537,29.2466087 79.4189315,29.2809457 79.1238443,29.5747174 C78.8880322,29.352163 78.693455,29.3547065 78.5169181,29.5073152 C77.6277906,29.0787391 77.8326765,28.4772065 77.2012671,28.0092065 C77.2386362,27.5043261 77.0350389,27.0388696 77.1793611,26.5212717 C76.1046765,26.2923587 75.2967302,25.4886196 74.7413477,24.770087 C74.8135087,24.6556304 74.9075758,24.6950543 74.9797369,24.5716957 C74.4552805,24.0324783 74.5467705,23.3966087 74.1099383,22.8421304 C74.2452403,21.9697174 74.0815893,21.143087 74.0274685,20.2999239 C74.1125154,20.0481196 73.8870121,20.4512609 73.8019651,20.2274348 C73.7839248,20.0354022 73.6950121,19.8522717 73.9720591,19.6144565 C73.758153,19.7161957 73.7169181,19.582663 73.6666631,19.3969891 C72.7556295,20.4792391 72.7247034,21.4241413 71.737643,22.5191087 C71.6873879,22.6144891 71.9051597,22.6704457 71.8317101,22.7696413 C70.5946631,25.0981957 68.766153,26.7349239 66.8938309,27.69 C66.6580188,27.6620217 67.201804,27.6098804 67.2688107,27.314837 C66.8474416,26.993087 65.9840859,27.3059348 65.8706899,26.6789674 C65.6477638,26.5085543 65.4841128,26.7387391 65.2676295,26.6115652 C64.9274416,25.8828587 64.3630389,25.1910326 64.271549,24.4229022 C64.3939651,23.2694348 64.5228242,22.1134239 64.6890523,20.9497826 C65.9544483,19.0434457 66.4544215,16.9069239 67.9337235,14.90775 C68.3769987,14.3100326 68.8267168,13.4605109 69.3820993,12.8182826 C70.4026631,11.6406522 71.6590389,10.1272826 73.0481396,9.74576087 C73.9334013,10.3905326 74.9230389,11.0175 75.5170792,11.7055109 C75.6459383,11.8822826 75.6330523,12.0781304 75.5583141,12.2854239 C75.8121664,12.3032283 75.9629315,11.6800761 76.2773477,12.0679565 C76.3301799,11.9166196 76.6819651,11.7207717 76.4216698,11.6190326 C76.5324886,11.4079239 76.7425289,11.8136087 76.8430389,11.5541739 C77.0878711,11.9509565 77.3455893,11.8263261 77.6342336,12.123913 C78.3262067,12.831 77.8481396,13.6525435 78.1213208,14.4957065 C77.8726228,14.8021957 77.7605154,15.0845217 77.7721128,15.351587 C78.0336966,15.4533261 77.8958174,14.9204674 78.0994148,15.0323804 C78.4099651,15.5868587 77.7321664,16.2964891 78.0646228,16.8484239 C77.9203007,17.0506304 77.9486497,17.223587 77.7257235,17.4346957 C77.6844886,17.5313478 77.8416966,17.5923913 77.9267436,17.6699674 C77.3455893,18.5233043 77.5272805,19.2570978 76.965455,20.1104348 C77.3546094,20.2274348 77.2231732,19.5953804 77.4989315,19.388087 C77.4022872,20.928163 76.5260456,22.5903261 76.8430389,24.0693587 C77.2296161,24.3478696 77.6123275,24.623837 77.9989047,24.8998043 C78.4254282,24.8222283 78.6432,24.0324783 78.721804,23.6725761 C80.201106,19.9832609 83.0682201,16.3308261 84.6673611,12.572837 C83.6712805,12.8589783 82.7138577,13.4007391 81.5322201,12.5295978 C81.4793879,12.0781304 80.7848376,11.7207717 80.7912805,11.2591304 C82.895549,10.1425435 84.9907973,8.94583696 87.2058846,8.50581522 C88.6284886,5.84025 90.0923275,3.0093587 91.5819383,0.423913043 C93.6862067,1.76559783 91.3680322,3.79402174 91.6218846,5.4243913 C91.0471732,6.01066304 91.230153,6.47866304 91.2237101,6.97718478 C91.3989584,7.06747826 91.5381262,6.90596739 91.7391463,7.16413043 C91.9466094,6.96828261 92.1978846,7.15395652 92.4929718,7.15141304 C92.580596,7.15141304 92.6901262,6.99626087 92.7906362,6.99880435 C92.8756832,7.00261957 92.9542872,7.17303261 93.0354685,7.17557609 C93.7776966,7.1921087 94.9799517,7.04331522 95.724757,7.449 C96.4102872,7.82416304 96.8213477,8.48165217 96.8496966,9.08572826 M84.3194416,15.4533261 C84.894153,14.493163 85.9649718,14.1078261 85.9778577,13.3295217 C85.4495356,13.9781087 84.6364349,14.6228804 84.3194416,15.4533261 M76.9783409,20.8544022 C77.0659651,20.6801739 76.9152,20.5440978 76.8494819,20.3927609 C76.6291329,20.5351957 77.0118443,20.5809783 76.7927839,20.7208696 C76.8546362,20.7641087 76.9152,20.8073478 76.9783409,20.8544022 M75.3353879,12.5855543 C74.5867168,12.855163 73.7890792,12.8157391 73.1512268,13.7759022 C72.6744483,13.9310543 72.2311732,14.4117717 72.0958711,14.9548043 C70.585643,16.0116196 69.9851597,17.5033696 68.8950121,18.9137283 C69.0303141,18.8450543 69.1372671,18.6288587 69.285455,18.6377609 C69.0895893,19.6576957 67.8370792,20.5250217 67.6360591,21.5055326 C67.585804,21.5678478 67.5535893,21.6784891 67.6540993,21.6072717 C67.7739383,21.3160435 67.8241933,21.2728043 68.0844886,21.2753478 C68.1063946,21.7344457 67.428596,22.2990978 67.563898,22.741663 C70.6204349,20.2808478 73.5133208,16.1235326 75.3353879,12.5855543 M68.3641128,19.6322609 C68.4968376,19.4402283 68.9233611,19.3448478 68.8666631,19.0777826 C68.709455,19.1184783 68.3074148,19.3690109 68.3641128,19.6322609" id="Fill-24" fill="#FFFFFF"></path>
                            <path d="M93.4099329,22.720425 C93.2965369,23.7060228 92.2785503,24.6051424 91.7012617,25.5449576 C91.9267651,24.5250228 92.7308456,23.5826641 93.4099329,22.720425" id="Fill-27" fill="#FFFFFF"></path>
                            <path d="M85.9776,13.3300304 C85.9647141,14.1083348 84.8938953,14.4924 84.3191839,15.4538348 C84.6361772,14.6233891 85.4505664,13.9773457 85.9776,13.3300304" id="Fill-29" fill="#FFFFFF"></path>
                            <path d="M85.5472107,18.0825196 C85.1760966,18.6929543 84.9441503,19.2792261 84.3823248,19.9150957 C84.362996,19.8120848 84.3475329,19.7065304 84.3320698,19.6047913 C84.712204,19.1647696 85.2869154,18.153737 85.5472107,18.0825196" id="Fill-31" fill="#FFFFFF"></path>
                            <path d="M76.8490953,20.3922522 C76.9148134,20.5448609 77.0655785,20.680937 76.9779544,20.8538935 C76.9148134,20.8081109 76.8555383,20.7648717 76.7923973,20.7203609 C77.0127463,20.5817413 76.6287463,20.534687 76.8490953,20.3922522" id="Fill-33" fill="#FFFFFF"></path>
                            <path d="M70.3370738,7.98211304 C70.3151678,8.25172174 70.1798658,8.64214565 69.9285906,8.79093913 C68.6090738,8.19958043 67.5859329,9.45733043 66.4455302,9.97238478 C66.3604832,10.127537 66.3759463,10.2674283 66.1968322,10.4378413 C65.9713289,10.5675587 66.2908993,10.1796783 66.3566174,10.0932 C66.2161611,9.87573261 66.165906,10.2547109 66.0241611,10.0372435 C64.9971544,11.0508196 63.8631946,11.3649391 62.8645369,12.5514717 C63.9224698,11.9779174 64.9378792,11.1194935 65.9674631,10.3666239 C65.7754631,11.1194935 64.6634094,11.5417109 64.0771007,12.0427761 C62.7794899,14.0063413 60.6339866,15.9622761 59.1727248,18.1852761 C59.210094,17.9054935 59.1830336,17.7198196 58.8364027,17.7567 C58.9317584,17.5125261 59.1160268,17.2518196 59.0979866,17.02545 C58.8054765,17.6206239 57.6083758,18.8173304 58.136698,19.4646457 C58.293906,19.418863 58.4562685,18.9190696 58.7139866,18.6812543 C58.6456913,19.2891457 57.7436779,20.150113 57.4047785,20.9627543 C57.7372349,20.9970913 57.8132617,20.5341783 57.9975302,20.2836457 C57.8068188,21.4676348 57.1058255,22.7292 56.5878121,23.9666022 C56.4241611,24.0975913 56.9073826,24.128113 56.7450201,24.2616457 C56.4215839,25.268863 55.9757315,26.2977 55.5041074,27.3303522 C55.001557,27.1077978 55.1922685,26.7758739 55.1020671,26.4871891 C54.7502819,26.7657 54.4423087,27.3239935 54.0248054,27.1879174 C53.9809933,27.0518413 54.0028993,26.9055913 53.9590872,26.7695152 C53.7761074,26.5177109 53.6884832,26.877613 53.5067919,26.6270804 C53.1794899,26.2697217 53.088,25.8767543 52.7362148,25.5232109 C53.0248591,24.9000587 52.3754094,24.5096348 52.5918926,23.9475261 C52.6550336,23.7834717 52.8715168,23.6499391 52.946255,23.4642652 C53.1485638,22.9746457 53.273557,22.4265261 53.5119463,21.93945 C54.765745,19.3934283 55.2309262,16.4735152 56.4434899,13.9224065 C56.522094,13.432787 56.380349,12.9736891 56.166443,12.5273087 C56.4898792,12.1763087 56.9267114,12.5578304 57.2475705,12.1979283 C57.6689396,12.6544826 58.3660671,12.5056891 58.4665772,13.0754283 C58.8557315,12.9202761 59.2268456,12.6354065 59.5721879,12.2106457 C61.8310872,11.4946565 63.8812349,9.45733043 66.1246711,8.63578696 C66.2599732,8.47554783 66.0048322,8.37253696 66.2689933,8.18940652 C66.8217987,7.89563478 67.9338523,7.55735217 68.6129396,7.66545 C69.2688322,7.76846087 69.7688054,7.45179783 70.3370738,7.98211304 M63.6467114,10.3539065 C63.3980134,10.1427978 63.2601342,10.6362326 63.0462282,10.6603957 C63.2910604,10.82445 63.4456913,10.4467435 63.6467114,10.3539065 M62.3491007,12.3657978 C62.502443,12.11145 62.7640268,12.1025478 62.6403221,11.8418413 C62.5720268,12.0122543 62.2447248,12.223363 62.3491007,12.3657978 M60.3724027,14.5353848 C60.7692886,13.8511891 61.4973423,13.4658522 61.7202685,12.837613 C61.2808591,13.0410913 60.4419866,14.241613 60.3724027,14.5353848" id="Fill-35" fill="#FFFFFF"></path>
                            <path d="M68.8671785,19.0777826 C68.9238765,19.3448478 68.4960644,19.4402283 68.3646282,19.6322609 C68.3079302,19.3690109 68.7099705,19.1184783 68.8671785,19.0777826" id="Fill-37" fill="#FFFFFF"></path>
                            <path d="M68.0313987,10.0994315 C67.6486872,11.0010946 66.3884456,11.1689641 65.6913181,12.0057685 C65.4774121,12.2639315 65.1733047,12.7904315 64.7712644,13.0015402 C64.6978148,13.0384207 64.4813315,12.9481272 64.3937074,13.0078989 C64.1243919,13.1846707 63.7880698,13.6488554 63.4105128,13.9591598 C62.9672376,14.3254207 62.4079893,14.4703989 62.4298953,14.9104207 C62.084553,14.898975 61.8397208,15.4941489 61.5381906,15.742138 C62.6695732,13.2584315 64.9684188,12.2728337 66.6938416,10.5178337 C67.0391839,10.7721815 67.5855463,10.2418663 68.0313987,10.0994315" id="Fill-39" fill="#FFFFFF"></path>
                            <path d="M64.626298,13.4508457 C64.2654926,13.8349109 64.2964188,14.3067261 63.8724725,14.4745957 C64.0206604,14.1515739 64.0992644,13.4724652 64.626298,13.4508457" id="Fill-41" fill="#FFFFFF"></path>
                            <path d="M63.0460993,10.66065 C63.2600054,10.6352152 63.3978846,10.1430522 63.6465826,10.3541609 C63.4455624,10.4469978 63.2909315,10.8247043 63.0460993,10.66065" id="Fill-43" fill="#FFFFFF"></path>
                            <path d="M62.6409664,11.8418413 C62.7633826,12.1025478 62.5030872,12.11145 62.3484564,12.3657978 C62.2453691,12.223363 62.5713826,12.0122543 62.6409664,11.8418413" id="Fill-45" fill="#FFFFFF"></path>
                            <path d="M62.5782121,14.8334804 C62.584655,15.0445891 62.449353,15.2798609 62.257353,15.5214913 C62.0408698,15.1844804 62.3295141,15.0293283 62.5782121,14.8334804" id="Fill-47" fill="#FFFFFF"></path>
                            <path d="M62.0033718,15.614837 C62.0381638,15.8475652 61.8809557,16.3562609 61.5600966,16.2163696 C61.5317477,15.955663 61.8526067,15.8005109 62.0033718,15.614837" id="Fill-49" fill="#FFFFFF"></path>
                            <path d="M61.230604,16.5325239 C61.4947651,16.634263 61.1494228,16.8708065 61.0708188,16.8797087 C60.9290738,16.8212087 61.0759732,16.4613065 61.230604,16.5325239" id="Fill-51" fill="#FFFFFF"></path>
                            <path d="M61.720655,12.8369772 C61.4977289,13.466488 60.7683866,13.8505533 60.3727893,14.5360207 C60.4423732,14.2409772 61.2812456,13.0417272 61.720655,12.8369772" id="Fill-53" fill="#FFFFFF"></path>
                            <path d="M54.9605799,12.3937761 C55.1242309,12.5298522 55.2273181,12.2755043 55.4128752,12.5362109 C54.4773584,14.3039283 53.3704591,17.9309283 51.1308886,18.8478522 C50.9865664,19.0131783 51.1308886,19.1301783 50.9865664,19.2980478 C50.4337611,19.6604935 49.8809557,20.0267543 49.3474792,20.5100152 C47.8204993,20.4693196 47.5563383,22.9161457 46.5886067,23.8674065 C46.3437745,23.1234391 46.8785396,22.2586565 47.0666738,21.4498304 C45.7381369,22.7571783 45.8541101,24.3023413 46.0989423,25.542287 C47.047345,25.9352543 48.2727946,25.2625043 49.3436134,24.5592326 C50.311345,23.923363 51.3035597,22.9848196 52.2931973,22.0755261 C52.4349423,22.2675587 52.2931973,22.5041022 52.4980832,22.6834174 C51.1283114,24.1153957 50.8705933,26.0497109 49.6425664,27.4422652 C49.5987544,27.5351022 49.7559624,27.5999609 49.8397208,27.677537 C49.2688752,28.0310804 48.7315329,28.6198957 48.0717745,28.4304065 C47.7573584,28.7076457 47.4558282,29.0828087 47.0512107,28.8030261 C47.2084188,28.6478739 47.5473181,28.613537 47.5279893,28.4100587 C46.9068886,28.5766565 46.0267812,28.4583848 45.2355866,28.233287 C44.8051973,28.1086565 44.8644725,27.7614717 44.5603651,27.3774065 C44.1196671,26.8254717 43.4792376,26.5431457 43.8439087,25.9454283 C43.4418685,25.7928196 43.6390228,25.5511891 43.3220295,25.3871348 C43.5385128,25.15695 43.5887678,24.9560152 43.6016537,24.7576239 C43.2369826,23.8203522 43.7936537,22.7393739 43.7678819,21.7499609 C44.5191302,20.2493087 45.4018148,18.5006674 46.0113181,17.1933196 C46.5319087,16.8677543 46.4378416,16.5014935 46.9442577,15.9304826 C47.0602309,15.7702435 46.8875597,15.655787 46.8746738,15.5158957 C47.8359624,14.3598848 48.4390228,13.0754283 49.4067544,12.087287 C49.8526067,10.9579826 51.3203114,10.614613 52.146298,9.63791739 C52.5766872,9.74983043 52.9400698,9.43952609 53.348553,9.39628696 C53.5817879,9.5018413 53.354996,9.59086304 53.2763919,9.62138478 C53.4709691,9.63410217 53.5495732,9.95076522 53.9619221,10.205113 C55.1422711,10.409863 55.0868617,11.64345 54.9605799,12.3937761" id="Fill-55" fill="#FFFFFF"></path>
                            <path d="M47.4593074,23.5729989 C47.6409987,23.709075 47.3111195,24.0689772 47.1642201,24.0969554 C47.0598443,23.9545207 47.3897235,23.743412 47.4593074,23.5729989" id="Fill-57" fill="#FFFFFF"></path>
                            <path d="M44.9241342,17.1494446 C45.0465503,17.4126946 44.6097181,17.766238 44.4241611,18.0790859 C44.3120537,17.8031185 44.7102282,17.3134989 44.9241342,17.1494446" id="Fill-59" fill="#FFFFFF"></path>
                            <path d="M4.18791946,14.8582793 C4.28198658,14.7718011 4.40826846,14.8519207 4.50877852,14.7959641 C5.4442953,13.3639859 6.53186577,12.1431163 7.25734228,11.067225 C6.1169396,12.0680837 5.13632215,13.782388 4.18791946,14.8582793 M14.1332617,22.3857033 C13.5521074,23.2784641 12.5470067,24.4064967 12.2261477,25.3157902 C11.4813423,25.7062141 10.8628188,26.9054641 10.0999732,27.1903337 C8.88096644,28.8092576 7.5021745,29.4171489 6.14528859,30.1483989 C5.05127517,29.9563663 4.11189262,30.7219533 3.01272483,30.4739641 C2.69573154,30.3277141 2.91221477,30.0988011 2.9753557,29.8940511 C2.17771812,29.699475 1.53342282,29.3573772 1.0837047,28.5358337 C0.764134228,27.9470185 0.68166443,26.7197902 0.399463087,25.926225 C0.274469799,25.575225 0.12885906,25.1199424 0.0786040268,24.5934424 C0,23.761725 0.154630872,23.181812 0,22.4200402 C0.949691275,18.1419098 3.0449396,12.5449859 7.24703356,8.29864891 C9.00338255,6.52838804 10.9891007,4.42620326 13.0585772,3.4558663 C13.6049396,3.43424674 14.2904698,3.21042065 15.0223893,3.57668152 C15.8200268,3.97600761 16.5210201,4.67419239 16.9166174,5.30624674 C16.4321074,5.65724674 15.885745,5.60129022 15.3548456,5.65724674 C14.862604,5.948475 14.3806711,6.32363804 13.8562148,6.4228337 C10.9195168,8.639475 8.01374497,11.0634098 5.33734228,14.933312 C5.37471141,15.834975 4.81030872,16.3830946 4.3605906,17.2707685 C4.02169128,17.9371598 3.87736913,18.7930402 3.59387919,19.5713446 C3.06297987,21.0491054 2.61068456,22.5128772 2.49471141,23.8431163 C2.65191946,23.9270511 2.7434094,23.5849533 2.91608054,23.7769859 C2.36327517,24.2551598 2.91608054,24.5591054 2.36327517,25.0360076 C2.53852349,25.8957033 2.68026846,26.7630293 2.67124832,27.6532467 C4.00622819,27.9470185 5.15178523,26.3967685 6.70711409,25.2127793 C7.00606711,24.9864098 7.4325906,24.7295185 7.96091275,24.2729641 C9.99559732,22.5255946 12.842094,19.2356054 13.9129128,16.5853011 C12.2171275,16.659062 10.7468456,18.174975 9.11677852,18.6620511 C8.77787919,18.3339424 8.48794631,18.3237685 8.20832215,18.3771815 C7.33594631,17.8010837 7.88875168,17.0062467 7.24445638,16.395812 C10.6592215,13.4326598 14.343302,12.1799967 17.9565101,10.4720511 C19.5955973,10.2698446 21.2205101,9.95699674 22.9601074,10.3881163 C23.2771007,10.6666272 23.5631678,10.769638 23.8427919,10.8344967 C24.2538523,11.3762576 24.8131007,11.891312 24.4394094,12.5551598 C26.2331275,11.6089859 27.8979866,9.86415978 29.8308725,9.79930109 C30.7032483,10.3906598 31.5678926,10.9858337 31.6967517,11.6929207 C31.2096644,12.6632576 30.8888054,13.4542793 30.0499329,14.5581489 C30.0782819,14.6967685 29.8179866,14.8798989 30.115651,14.9765511 C29.7831946,15.6429424 29.2084832,16.6628772 28.472698,17.1995511 C28.4327517,17.4526272 28.7188188,16.9693663 28.850255,17.1957359 C28.5139329,17.5708989 28.2317315,18.2779859 27.8232483,18.2067685 C27.7820134,18.0172793 27.9237584,17.8010837 28.1028725,17.5772576 C27.399302,18.4852793 26.3658523,18.9532793 25.9599463,19.720138 C25.9071141,19.6234859 25.941906,19.5115728 26.0166443,19.3933011 C24.1314362,21.2233337 22.1431409,22.3984207 20.0981477,23.2415837 C20.1239195,24.0872902 20.0582013,24.9520728 20.0762416,25.8015946 C22.1998389,25.5879424 24.1314362,24.1521489 26.1300403,23.1576489 C26.8709799,22.4200402 27.7601074,22.094475 28.5049128,21.456062 C29.4662013,20.6307033 30.1259597,19.895638 31.1658523,18.8604424 C31.6336107,18.3924424 32.1361611,18.1012141 32.3874362,17.7107902 C32.9711678,16.7964098 33.0935839,15.7078011 33.763651,14.8328446 C34.1940403,13.3296489 35.5290201,11.6840185 35.3550604,10.2736598 C35.9529664,10.0650946 36.672,10.623388 37.3884564,11.1816815 C37.2879463,11.3927902 37.4387114,11.5657467 37.4284027,11.7615946 C37.9129128,11.535225 38.3871141,11.2401815 38.8638926,10.9514967 C38.9154362,11.0506924 38.8832215,11.1626054 38.8084832,11.2808772 C40.5300403,10.394475 42.709047,9.36818152 44.572349,11.5568446 C44.4344698,11.739975 44.685745,11.8607902 44.4911678,12.0490076 C46.4188993,13.0727576 45.9421208,15.0070728 44.5027651,16.2012359 C44.0981477,17.2173554 43.0427919,18.433138 42.5621477,19.5916924 C41.7735302,21.0211272 40.2156242,21.924062 40.0648591,23.2288663 C41.3998389,22.2152902 41.9874362,20.5162467 43.0827383,19.140225 C42.8572349,20.2746163 41.8650201,21.5298228 41.173047,22.7392467 C40.9823356,22.7761272 40.8251275,23.0241163 40.6202416,22.9846924 C40.5764295,23.6943228 40.0481074,23.8240402 40.0519732,24.5095076 C40.1898523,24.5832685 40.2748993,24.3263772 40.4127785,24.400138 C40.5300403,23.7935185 41.1421208,23.176725 41.2954631,22.825725 C41.6188993,23.2199641 41.2774228,23.4552359 40.9977987,23.9919098 C41.415302,24.0160728 41.7168322,23.3255185 42.1162953,23.2288663 C41.500349,24.6176054 40.8470336,26.1055402 39.573906,26.9270837 C39.0971275,26.6294967 38.6912215,26.7910076 38.2775839,26.915638 C37.0959463,26.2110946 37.4889664,25.2623772 37.2312483,24.4166707 C37.5856107,23.259388 38.4154631,22.3513663 38.8149262,21.1330402 C39.1602685,20.0673228 39.3857718,18.9850728 39.8702819,17.9333446 C40.0326443,17.5708989 40.1743893,17.214812 40.1241342,16.829475 C40.7246174,15.8629533 41.1769128,14.513638 41.6292081,13.4008663 C40.4759195,13.051138 39.6525101,14.7781598 38.6383893,15.3021163 C38.0044027,16.3830946 36.7699329,17.0037033 36.0560537,18.0452576 C35.3434631,19.086812 35.1321342,20.315312 34.3692886,21.3441489 C34.1991946,21.5667033 34.4388725,21.7256707 34.4066577,21.924062 C33.8074631,22.1784098 33.6309262,22.7176272 33.2791409,23.3255185 C33.5342819,23.328062 33.6747383,22.6400511 33.9672483,22.8969424 C33.429906,24.019888 32.5188725,25.458225 32.1271409,26.9118228 C31.5988188,27.4357793 30.8978255,26.8813011 30.250953,26.6701924 C29.5383624,26.1958337 29.5564027,25.6070185 28.8721611,25.1263011 C28.992,24.5400293 29.0255034,23.966475 28.9249933,23.4145402 C29.7767517,22.2178337 30.357906,21.0618228 31.0614765,19.8867359 C29.8398926,20.8545293 28.7342819,22.5408554 27.4869262,23.3433228 C27.6093423,23.1945293 27.6686174,23.0495511 27.6067651,22.9274641 C27.5500671,23.0737141 27.213745,23.2657467 27.4456913,23.3687576 C27.3516242,23.4272576 27.257557,23.4793989 27.1596242,23.5302685 C26.9998389,23.7502793 26.8361879,23.9702902 26.6725369,24.1903011 C26.5694497,24.2488011 26.8271678,24.4471924 26.8993289,24.3950511 C25.4702819,26.4311054 23.4974497,28.5523663 21.3893154,28.9516924 C21.3545235,28.524388 20.5826577,28.3844967 20.2965906,28.5358337 C19.5324564,27.9012359 19.4229262,28.3628772 18.5337987,27.6379859 C18.5943624,27.5565946 18.6536376,27.476475 18.7129128,27.3988989 C18.4899866,27.237388 18.2644832,27.0758772 18.0402685,26.915638 C17.0235705,25.2623772 17.1459866,23.4336163 17.6163221,21.5488989 C17.7387383,21.3009098 17.9178523,21.4128228 18.0505772,21.216975 C18.7786309,18.286888 21.7449664,15.7599424 23.7964027,12.9201489 C23.7680537,12.3745728 23.7641879,11.822638 23.4884295,11.3177576 C21.7913557,10.3753989 20.594255,12.5767793 19.1407248,13.1630511 C18.4809664,14.2198663 17.6549799,14.2198663 16.9668725,15.0999098 C16.8663624,15.0350511 16.7555436,14.9015185 16.6782282,14.9854533 C16.3380403,15.6391272 16.8032215,16.1732576 16.0120268,16.8981489 C15.8728591,17.1245185 16.3354631,16.805312 16.1975839,17.0278663 C15.9901208,17.5963337 15.3484027,18.2245728 14.9682685,18.8172033 C15.4463356,18.8515402 15.2324295,18.414062 15.5816376,18.2436489 C15.6757047,18.1940511 15.2324295,18.7612467 15.1976376,18.8884207 C15.1667114,18.993975 15.3419597,19.0308554 15.2917047,19.140225 C14.9373423,19.8994533 14.3806711,20.695562 14.157745,21.1800946 C15.4656644,20.485725 16.2027383,17.7972685 17.1395436,16.5102685 C17.0519195,17.5187576 16.5042685,18.5971924 16.021047,19.666725 C15.3986577,20.490812 14.755651,21.3187141 14.834255,22.0347033 C14.5005101,22.416225 14.2028456,23.0393772 13.8407517,23.2543011 C14.0391946,22.9503554 13.9915168,22.6832902 14.1332617,22.3857033 M14.1332617,22.3831598 C14.1835168,22.3106707 14.2247517,22.2432685 14.264698,22.1745946 C14.208,22.245812 14.1641879,22.3170293 14.1332617,22.3831598 M28.636349,12.8095076 C27.7910336,12.6047576 26.7073289,13.7912902 25.7589262,14.0519967 C23.7139329,15.8718554 22.1779329,17.5034967 20.6110067,20.0202685 C23.4033826,18.3708228 26.2679195,16.0613446 28.636349,12.8095076 M12.6565369,23.5976707 C12.9400268,22.9223772 13.298255,22.8104641 13.5714362,22.2305511 C13.1088322,22.3704424 12.6604027,23.1983446 12.6565369,23.5976707 M11.8112215,23.727388 C12.1295034,24.024975 12.4400537,23.2047033 12.3021745,23.0673554 C12.0315705,23.3802033 12.0599195,23.532812 11.8112215,23.727388 M8.19672483,28.1237902 C9.6,26.3382685 11.2932081,24.878312 12.1295034,22.6680293 C10.8447785,24.3797902 8.94668456,26.2581489 8.19672483,28.1237902 M3.74851007,16.4581272 C3.82711409,16.1109424 4.4018255,15.6823663 4.27296644,15.366975 C3.99591946,15.7446815 3.62609396,16.1414641 3.74851007,16.4581272" id="Fill-61" fill="#FFFFFF"></path>
                            <path d="M33.9925047,22.3609043 C34.2566658,22.4664587 33.8662228,22.757687 33.7850416,22.7665891 C33.7128805,22.6839261 33.8043705,22.3113065 33.9925047,22.3609043" id="Fill-63" fill="#FFFFFF"></path>
                            <path d="M30.5526121,14.0027804 C30.7252832,13.8476283 30.9237262,13.8450848 31.1595383,14.0676391 C30.5435919,14.3474217 30.8515651,15.1524326 30.153149,15.5555739 C29.9869208,15.0850304 30.779404,14.4644217 30.5526121,14.0027804" id="Fill-65" fill="#FFFFFF"></path>
                            <path d="M27.6062497,22.9281 C27.6693906,23.0489152 27.6088268,23.1951652 27.4864107,23.3439587 C27.4748134,23.3528609 27.4580617,23.3592196 27.4464644,23.3681217 C27.2132295,23.2663826 27.5495517,23.07435 27.6062497,22.9281" id="Fill-67" fill="#FFFFFF"></path>
                            <path d="M27.4869262,23.3435772 C27.4804832,23.3524793 27.4714631,23.3651967 27.4611544,23.3753707 C27.456,23.3715554 27.4521342,23.3715554 27.4456913,23.369012 C27.4585772,23.358838 27.4740403,23.3524793 27.4869262,23.3435772" id="Fill-69" fill="#FFFFFF"></path>
                            <path d="M14.1331329,22.3826511 C14.1640591,22.3177924 14.2091597,22.246575 14.2645691,22.1753576 C14.2246228,22.2427598 14.1833879,22.3114337 14.1331329,22.3826511" id="Fill-71" fill="#FFFFFF"></path>
                            <path d="M13.5707919,22.2308054 C13.2976107,22.8107185 12.9393826,22.9226315 12.6571812,23.597925 C12.6597584,23.1973272 13.1094765,22.3706967 13.5707919,22.2308054" id="Fill-73" fill="#FFFFFF"></path>
                            <path d="M12.3017879,23.067737 C12.4396671,23.203813 12.1291168,24.0253565 11.8121235,23.7277696 C12.0595329,23.5331935 12.0311839,23.3805848 12.3017879,23.067737" id="Fill-75" fill="#FFFFFF"></path>
                            <path d="M12.1291168,22.667775 C11.2941101,24.8780576 9.60090201,26.3380141 8.19633826,28.1248076 C8.94758658,26.2578946 10.8443919,24.3795359 12.1291168,22.667775" id="Fill-77" fill="#FFFFFF"></path>
                            <path d="M7.2569557,11.0668435 C6.53147919,12.1427348 5.44390872,13.3636043 4.50839195,14.7968543 C4.40788188,14.8528109 4.2816,14.7714196 4.18753289,14.8578978 C5.13593557,13.7832783 6.11655302,12.0677022 7.2569557,11.0668435" id="Fill-79" fill="#FFFFFF"></path>
                            <path d="M4.27283758,15.3668478 C4.40169664,15.6835109 3.82698523,16.1108152 3.74838121,16.458 C3.6259651,16.141337 3.9957906,15.7445543 4.27283758,15.3668478" id="Fill-81" fill="#FFFFFF"></path>
                            <path d="M125.816054,33.9929935 C122.881933,33.7081239 120.267383,33.5656891 117.639946,33.7170261 C116.517584,33.7818848 115.386201,33.7780696 114.258685,33.7742543 C111.27302,33.7640804 108.289933,33.7450043 105.305557,33.7144826 C103.045369,33.6915913 100.790336,33.5491565 98.5224161,33.5987543 C95.0457987,33.6763304 91.5601611,33.5745913 88.0783893,33.5606022 C86.5849128,33.5542435 85.0927248,33.5529717 83.6018255,33.5911239 C81.5246174,33.644537 79.4512752,33.7361022 77.3753557,33.809863 C75.1641342,33.8887109 72.9516242,33.9688304 70.7404027,34.0464065 C68.7984966,34.1138087 66.8578792,34.22445 64.9146846,34.2371674 C61.8452617,34.258787 58.7732617,34.2028304 55.7025503,34.2028304 C52.3109799,34.2041022 48.920698,34.2397109 45.5291275,34.2447978 C41.9571544,34.2498848 38.3838926,34.2422543 34.8119195,34.2282652 C33.9988188,34.2257217 33.1831409,34.1532326 32.3700403,34.1532326 C30.5634362,34.1532326 28.7645638,34.3541674 26.9515168,34.229537 C26.5456107,34.2028304 26.1371275,34.2346239 25.7299329,34.2397109 C23.6514362,34.2689609 21.5729396,34.3045696 19.494443,34.3249174 C18.9532349,34.3300043 18.4094497,34.2613304 17.8695302,34.2689609 C15.6557315,34.2969391 13.4432215,34.3439935 11.2294228,34.3783304 C10.4176107,34.3910478 9.60451007,34.3885043 8.79269799,34.39995 C8.43189262,34.405037 8.06722148,34.4075804 7.71028188,34.4482761 C5.84053691,34.6593848 3.96048322,34.7776565 2.02888591,34.7623957 C2.07656376,35.1871565 2.10748993,35.5928413 2.16934228,35.9959826 C2.23119463,36.4067543 2.31624161,36.8175261 2.75951678,37.2181239 C3.27881879,37.3185913 3.89605369,37.5398739 4.50684564,37.5360587 C5.49261745,37.5297 6.47581208,37.3847217 7.45771812,37.2842543 C8.35071141,37.1914174 9.23855034,37.0718739 10.1315436,36.9803087 C10.4433826,36.9472435 10.7745503,37.0006565 11.0773691,36.9447 C13.3787919,36.5224826 15.7446443,36.5911565 18.0757047,36.4080261 C18.3437315,36.3864065 18.6169128,36.4118413 18.8875168,36.4182 C19.6078389,36.4334609 20.3307383,36.4805152 21.0497718,36.4588957 C23.6656107,36.3787761 26.2788725,36.1676674 28.902443,36.4271022 C29.934604,36.5288413 30.9564564,36.715787 32.0015034,36.5898848 C32.1741745,36.5682652 32.3623087,36.6089609 32.5401342,36.6369391 C34.4266309,36.920537 36.3195705,36.9663196 38.2215302,36.8887435 C38.8980403,36.8607652 39.5848591,36.8340587 40.2562148,36.9001891 C41.5757315,37.0311783 42.8733423,36.8951022 44.1722416,36.7971783 C46.0510067,36.6789065 48.4477852,36.442363 50.9038389,36.2287109 C51.2594899,36.1994609 51.6434899,36.1663957 51.9798121,36.2452435 C52.7864698,36.4334609 53.5918389,36.3813196 54.403651,36.3914935 C55.3958658,36.4029391 56.3919463,36.4309174 57.3802953,36.5097652 C58.4601342,36.5949717 59.5296644,36.7831891 60.6095034,36.8633087 C64.0410201,37.115113 67.4751141,37.300787 70.9130738,37.1303739 C72.039302,37.0744174 73.1603758,36.9764935 74.2853154,36.9129065 C75.6808591,36.8353304 77.081557,36.6674609 78.4732349,36.7297761 C80.9756779,36.8416891 83.4330201,36.5441022 85.9109799,36.452537 C87.5333154,36.3927652 89.1492081,36.266863 90.770255,36.1842 C92.3023893,36.1066239 93.8358121,36.0493957 95.3692349,35.9756348 C96.1784698,35.9362109 96.9889933,35.8827978 97.7969396,35.8293848 C99.0107919,35.7492652 100.222067,35.6577 101.434631,35.5788522 C102.198765,35.5279826 102.961611,35.4834717 103.725745,35.4491348 C105.256591,35.3804609 106.793879,35.360113 108.316993,35.2405696 C109.175195,35.1744391 110.02051,35.1337435 110.883866,35.1782543 C111.694389,35.2214935 112.522953,35.2736348 113.318013,35.184613 C114.753503,35.0218304 116.19157,34.9747761 117.637369,34.9620587 C118.089664,34.9569717 118.54196,34.9582435 118.991678,34.9277217 C120.294443,34.8412435 121.401342,34.51695 122.698953,34.3961348 C123.481128,34.3249174 124.071302,34.3630696 124.881826,34.2308087 C125.031302,34.2066457 125.433342,34.1837543 125.816054,33.9929935 L125.816054,33.9929935 Z M77.3766443,35.6971239 L76.9256376,35.9323957 L76.1731007,35.9769065 C76.1731007,35.9769065 75.061047,35.8115804 76.0532617,35.6462543 L76.7155973,35.6462543 L77.3766443,35.6971239 Z M82.3390067,35.86245 L81.5001342,36.0977217 L80.1007248,36.1422326 C80.1007248,36.1422326 78.0312483,35.9769065 79.8777987,35.8115804 L81.1084027,35.8115804 L82.3390067,35.86245 Z" id="Fill-83" fill="#FFFFFF"></path>
                            <mask id="mask-2" fill="white">
                                <use xlink:href="#path-1"></use>
                            </mask>
                            <g id="Clip-86"></g>
                            <path d="M51.4137342,36.9934076 L52.6443383,36.9934076 L53.8762309,37.0442772 L53.0360698,37.2795489 L51.637949,37.3240598 C51.637949,37.3240598 49.5671839,37.1587337 51.4137342,36.9934076" id="Fill-85" fill="#FFFFFF" mask="url(#mask-2)"></path>
                            <path d="M22.1651758,36.4507565 L24.9601289,36.0616043 L27.764102,35.7245935 L25.8904913,36.2205717 L22.7205584,36.7076478 C22.7205584,36.7076478 17.9952966,37.1947239 22.1651758,36.4507565" id="Fill-88" fill="#FFFFFF" mask="url(#mask-2)"></path>
                            <mask id="mask-4" fill="white">
                                <use xlink:href="#path-3"></use>
                            </mask>
                            <g id="Clip-91"></g>
                            <path d="M58.4588456,36.7811543 L61.2808591,36.7073935 L64.1041611,36.6870457 L62.1867383,36.9706435 L58.9807248,37.0990891 C58.9807248,37.0990891 54.2296913,37.0571217 58.4588456,36.7811543" id="Fill-90" fill="#FFFFFF" mask="url(#mask-4)"></path>
                            <path d="M34.2516403,36.9462261 L31.7504859,37.0759435 L29.2441772,37.078487 L30.9180564,36.4031935 L33.7529557,36.142487 C33.7529557,36.142487 37.9808215,36.3383348 34.2516403,36.9462261" id="Fill-93" fill="#FFFFFF" mask="url(#mask-4)"></path>
                            <mask id="mask-6" fill="white">
                                <use xlink:href="#path-5"></use>
                            </mask>
                            <g id="Clip-96"></g>
                            <path d="M16.7907221,36.9934076 L21.4850577,36.9934076 L26.1781047,37.0760707 L22.9785342,37.4626793 L17.6437691,37.5364402 C17.6437691,37.5364402 9.74986309,37.264288 16.7907221,36.9934076" id="Fill-95" fill="#FFFFFF" mask="url(#mask-6)"></path>
                            <path d="M48.412349,36.6605935 L49.073396,36.6605935 L49.7357315,36.7127348 L49.2847248,36.9480065 L48.5321879,36.9925174 C48.5321879,36.9925174 47.4201342,36.8271913 48.412349,36.6605935" id="Fill-98" fill="#FFFFFF" mask="url(#mask-6)"></path>
                            <path d="M24.352043,36.5687739 L25.0130899,36.5687739 L25.6754255,36.6196435 L25.2244188,36.8549152 L24.4718819,36.9006978 C24.4718819,36.9006978 23.3598282,36.7341 24.352043,36.5687739" id="Fill-101" fill="#FFFFFF" mask="url(#mask-6)"></path>
                            <mask id="mask-8" fill="white">
                                <use xlink:href="#path-7"></use>
                            </mask>
                            <g id="Clip-105"></g>
                            <path d="M10.922996,37.2654326 L11.584043,37.2654326 L12.2463785,37.3163022 L11.7953718,37.5515739 L11.0428349,37.5960848 C11.0428349,37.5960848 9.93078121,37.4307587 10.922996,37.2654326" id="Fill-104" fill="#FFFFFF" mask="url(#mask-8)"></path>
                        </g>
                    </g>
                </g>
            </g>
        </g>
    </g>
</svg>